<?xml version="1.0" encoding="UTF-8"?>
<!DOCTYPE svg PUBLIC "-//W3C//DTD SVG 1.1//EN" "http://www.w3.org/Graphics/SVG/1.1/DTD/svg11.dtd">
<!-- Creator: CorelDRAW 2020 (64 Bit) -->
<svg xmlns="http://www.w3.org/2000/svg" xml:space="preserve" width="14.4182mm" height="12.1471mm" version="1.1" style="shape-rendering:geometricPrecision; text-rendering:geometricPrecision; image-rendering:optimizeQuality; fill-rule:evenodd; clip-rule:evenodd"
viewBox="0 0 6205.51 5228.04"
 xmlns:xlink="http://www.w3.org/1999/xlink"
 xmlns:xodm="http://www.corel.com/coreldraw/odm/2003">
 <defs>
  <style type="text/css">
   <![CDATA[
    .fil0 {fill:#373435}
    .fil1 {fill:#373435;fill-rule:nonzero}
   ]]>
  </style>
 </defs>
 <g id="Camada_x0020_1">
  <metadata id="CorelCorpID_0Corel-Layer"/>
  <g id="_2447551275920">
   <path class="fil0" d="M885.66 -0.04l4434.18 0c487.08,0 885.66,398.54 885.66,885.66l0 3456.8c0,487.12 -398.59,885.62 -885.66,885.62l-4434.18 0c-487.08,0 -885.66,-398.5 -885.66,-885.62l0 -3456.8c0,-487.12 398.59,-885.66 885.66,-885.66zm65.94 101.75l4302.3 0c468.01,0 851.15,383.01 851.15,851.19l0 3322.25c0,468.18 -383.14,851.19 -851.15,851.19l-4302.3 0c-468.01,0 -851.15,-383.01 -851.15,-851.19l0 -3322.25c0,-468.18 383.14,-851.19 851.15,-851.19z"/>
   <rect class="fil0" x="818.25" y="429.74" width="316.33" height="3206.43"/>
   <rect class="fil0" x="1446.04" y="429.74" width="202.47" height="2235.87"/>
   <rect class="fil0" x="5296.21" y="429.74" width="101.64" height="3206.43"/>
   <rect class="fil0" x="1957.61" y="429.74" width="202.47" height="2235.87"/>
   <rect class="fil0" x="2675.71" y="429.74" width="291.44" height="2235.87"/>
   <rect class="fil0" x="3273.08" y="429.74" width="202.47" height="2235.87"/>
   <rect class="fil0" x="4413.76" y="429.74" width="291.44" height="2235.87"/>
   <rect class="fil0" x="3691.61" y="429.74" width="101.68" height="2235.87"/>
   <rect class="fil0" x="4066.54" y="429.74" width="101.68" height="2235.87"/>
   <rect class="fil0" x="2328.5" y="429.74" width="101.68" height="2235.87"/>
   <rect class="fil0" x="4957.11" y="429.74" width="202.47" height="2235.87"/>
   <path class="fil1" d="M1478.15 3785.88l0 -737.44 348.58 0c70.93,0 127.83,7.36 170.82,22.29 42.82,14.93 76.35,37.92 100.58,68.99 24.4,30.9 36.54,63.35 36.54,97.36 0,31.42 -10.85,61.12 -32.24,88.92 -21.39,27.8 -53.84,50.27 -97.31,67.44 56.21,13.04 99.46,35.38 129.55,66.97 30.26,31.42 45.36,68.65 45.36,111.56 0,34.69 -9.3,66.8 -27.67,96.49 -18.33,29.7 -41.06,52.51 -68.09,68.65 -27.03,15.97 -60.99,28.15 -101.62,36.41 -40.89,8.22 -90.81,12.35 -150.08,12.35l-354.43 0zm123.26 -427.42l200.91 0c54.49,0 93.61,-2.93 117.2,-8.61 31.33,-7.36 54.92,-19.76 70.71,-36.88 15.75,-17.17 23.76,-38.65 23.76,-64.56 0,-24.53 -7.36,-46.18 -22.25,-64.73 -14.72,-18.68 -35.89,-31.55 -63.35,-38.43 -27.5,-6.89 -74.63,-10.29 -141.21,-10.29l-185.76 0 0 223.5zm0 340.92l231.38 0c39.81,0 67.7,-1.21 83.88,-3.62 28.1,-3.96 51.91,-10.63 70.93,-20.1 19.02,-9.43 34.6,-23.16 46.96,-41.19 12.31,-18.03 18.33,-38.78 18.33,-62.32 0,-27.63 -8.82,-51.48 -26.77,-71.92 -17.73,-20.44 -42.39,-34.69 -73.98,-42.91 -31.33,-8.22 -76.74,-12.35 -135.79,-12.35l-214.94 0 0 254.41zm690.22 -180.77c0,-98.73 34.6,-171.86 103.98,-219.37 57.76,-39.51 128.47,-59.22 211.71,-59.22 92.32,0 168.03,24.02 226.82,72.09 58.62,47.86 88.02,114.31 88.02,198.93 0,68.69 -12.95,122.58 -38.91,161.87 -25.95,39.34 -63.78,69.9 -113.54,91.67 -49.5,21.82 -103.77,32.62 -162.39,32.62 -94.3,0 -170.39,-23.84 -228.58,-71.75 -58.15,-47.9 -87.11,-116.9 -87.11,-206.85zm116.77 0.17c0,68.3 18.81,119.48 56.42,153.31 37.83,33.96 85.22,50.96 142.5,50.96 56.64,0 103.77,-17 141.64,-51.13 37.62,-34.17 56.42,-86.21 56.42,-156.06 0,-65.94 -19.02,-115.86 -56.86,-149.69 -37.87,-34 -85,-50.96 -141.21,-50.96 -57.29,0 -104.67,16.79 -142.5,50.61 -37.62,33.83 -56.42,84.79 -56.42,152.96zm644.99 267.1l0 -737.44 114.18 0 0 737.44 -114.18 0zm750.13 -173.06l118.06 12.4c-18.38,54.4 -52.77,96.8 -102.91,126.84 -50.18,30.04 -114.18,45.15 -192.26,45.15 -98.17,0 -175.99,-24.02 -233.53,-72.09 -57.5,-47.9 -86.25,-115.35 -86.25,-202.03 0,-89.61 28.97,-159.33 87.11,-208.74 58.19,-49.62 133.64,-74.33 226.43,-74.33 89.74,0 163.03,24.19 219.89,72.78 56.86,48.55 85.43,116.9 85.43,204.95 0,5.34 -0.22,13.39 -0.69,24.02l-501.41 0c4.3,58.53 25.09,103.51 62.71,134.58 37.4,31.07 84.31,46.7 140.31,46.7 41.75,0 77.43,-8.74 106.82,-26.25 29.61,-17.52 52.98,-45.49 70.28,-83.97zm-373.67 -145.21l374.96 0c-4.95,-44.98 -19.45,-78.59 -43.04,-101.1 -36.11,-34.86 -83.24,-52.34 -140.95,-52.34 -52.34,0 -96.24,13.9 -131.92,41.71 -35.46,27.8 -55.13,65.03 -59.05,111.73zm883.77 237.41l15.54 80.01c-31.98,5.34 -60.73,8.05 -85.82,8.05 -41.32,0 -73.3,-5.12 -96.24,-15.62 -22.68,-10.46 -38.69,-24.02 -47.99,-41.02 -9.3,-17 -13.86,-52.68 -13.86,-107.13l0 -307.95 -84.31 0 0 -70.03 84.31 0 0 -132.17 114.18 -54.44 0 186.62 114.18 0 0 70.03 -114.18 0 0 313.11c0,25.91 1.94,42.57 6.07,49.97 3.87,7.36 10.37,13.21 19.45,17.69 9.08,4.26 22.04,6.5 38.91,6.5 12.57,0 29.22,-1.21 49.75,-3.62zm69.81 -186.4c0,-98.73 34.6,-171.86 104.03,-219.37 57.72,-39.51 128.43,-59.22 211.67,-59.22 92.36,0 168.03,24.02 226.86,72.09 58.58,47.86 87.97,114.31 87.97,198.93 0,68.69 -12.95,122.58 -38.91,161.87 -25.95,39.34 -63.78,69.9 -113.49,91.67 -49.54,21.82 -103.81,32.62 -162.43,32.62 -94.26,0 -170.35,-23.84 -228.54,-71.75 -58.15,-47.9 -87.15,-116.9 -87.15,-206.85zm116.77 0.17c0,68.3 18.85,119.48 56.47,153.31 37.83,33.96 85.17,50.96 142.46,50.96 56.68,0 103.81,-17 141.64,-51.13 37.62,-34.17 56.42,-86.21 56.42,-156.06 0,-65.94 -19.02,-115.86 -56.86,-149.69 -37.83,-34 -84.96,-50.96 -141.21,-50.96 -57.29,0 -104.63,16.79 -142.46,50.61 -37.62,33.83 -56.47,84.79 -56.47,152.96z"/>
   <path class="fil1" d="M766.4 4758.57l0 -737.44 348.58 0c70.93,0 127.78,7.36 170.82,22.29 42.82,14.93 76.35,37.96 100.58,69.04 24.4,30.86 36.5,63.31 36.5,97.31 0,31.42 -10.8,61.12 -32.19,88.92 -21.43,27.8 -53.84,50.31 -97.31,67.49 56.21,13.04 99.46,35.34 129.51,66.93 30.3,31.42 45.41,68.65 45.41,111.56 0,34.69 -9.3,66.8 -27.67,96.49 -18.38,29.7 -41.06,52.51 -68.09,68.65 -27.03,15.97 -60.99,28.15 -101.66,36.41 -40.84,8.22 -90.81,12.35 -150.04,12.35l-354.43 0zm123.26 -427.42l200.91 0c54.44,0 93.61,-2.93 117.15,-8.61 31.38,-7.36 54.96,-19.71 70.76,-36.88 15.75,-17.17 23.76,-38.65 23.76,-64.56 0,-24.53 -7.36,-46.18 -22.25,-64.69 -14.72,-18.72 -35.89,-31.59 -63.35,-38.48 -27.5,-6.84 -74.63,-10.29 -141.21,-10.29l-185.76 0 0 223.5zm0 340.92l231.38 0c39.77,0 67.66,-1.21 83.88,-3.62 28.1,-3.92 51.91,-10.63 70.93,-20.1 19.02,-9.43 34.6,-23.16 46.91,-41.19 12.35,-17.99 18.38,-38.78 18.38,-62.28 0,-27.67 -8.87,-51.52 -26.81,-71.96 -17.73,-20.4 -42.35,-34.65 -73.94,-42.91 -31.33,-8.22 -76.74,-12.35 -135.79,-12.35l-214.94 0 0 254.41zm1172.82 19.58c-42.35,28.66 -83.24,48.72 -122.36,60.6 -39.17,11.84 -81.09,17.65 -126.06,17.65 -73.94,0 -130.84,-14.25 -170.61,-42.91 -39.81,-28.49 -59.7,-65.03 -59.7,-109.49 0,-26.12 7.57,-49.97 22.51,-71.62 15.11,-21.61 34.82,-38.78 59.01,-51.82 24.45,-13.04 51.69,-23.03 82.16,-29.7 22.51,-4.65 56.47,-9.08 101.66,-13.56 92.1,-8.61 160.19,-19.07 203.66,-31.07 0.43,-12.35 0.65,-20.27 0.65,-23.54 0,-36.71 -10.8,-62.62 -32.41,-77.73 -29.18,-20.44 -72.65,-30.56 -130.19,-30.56 -53.84,0 -93.61,7.53 -119.13,22.47 -25.74,14.93 -44.55,41.4 -56.86,79.49l-111.56 -12.35c10.11,-37.96 26.77,-68.69 50.14,-92.02 23.37,-23.33 57.07,-41.19 101.19,-53.93 43.9,-12.52 95.16,-18.85 153.09,-18.85 57.54,0 104.46,5.34 140.57,16.14 35.89,10.8 62.49,24.19 79.36,40.5 16.83,16.31 28.75,36.93 35.68,61.8 3.66,15.45 5.6,43.25 5.6,83.24l0 120.17c0,83.97 2.37,136.99 7.14,159.46 4.56,22.51 14.07,43.94 27.89,64.56l-119.35 0c-11.45,-19.07 -18.81,-41.36 -22.08,-66.93zm-9.08 -200.86c-41.49,13.39 -103.77,24.7 -186.83,34 -47.13,5.29 -80.4,11.32 -99.89,18.03 -19.45,6.67 -34.35,16.48 -44.98,29.18 -10.59,12.87 -15.97,27.11 -15.97,42.91 0,23.84 11.45,43.94 34.6,59.91 23.11,15.97 56.86,24.02 101.19,24.02 43.9,0 83.02,-7.53 117.41,-22.81 34.17,-15.11 59.44,-35.89 75.45,-62.15 12.35,-20.44 18.38,-50.49 18.38,-90.12l0.65 -32.97zm290.86 267.79l0 -534.55 102.48 0 0 75.88c49.32,-58.19 120.68,-87.2 213.86,-87.2 40.63,0 77.82,5.81 111.77,17.34 33.96,11.49 59.48,26.77 76.35,45.45 16.87,18.72 28.75,41.06 35.46,66.8 4.09,16.83 6.24,46.18 6.24,88.06l0 328.22 -114.14 0 0 -324.78c0,-36.93 -4.35,-64.56 -13.21,-82.76 -8.87,-18.16 -24.66,-32.75 -47.13,-43.77 -22.51,-10.8 -49.06,-16.31 -79.36,-16.31 -48.42,0 -90.17,12.22 -125.42,36.76 -35.25,24.36 -52.77,70.89 -52.77,139.23l0 291.63 -114.14 0zm1161.38 -195.7l111.56 12.35c-12.31,60.94 -43.47,108.5 -93.83,143.02 -50.4,34.47 -112.46,51.65 -185.76,51.65 -91.89,0 -165.83,-23.84 -221.65,-71.57 -55.99,-47.73 -83.88,-116.03 -83.88,-204.95 0,-57.67 12.09,-107.99 36.11,-151.24 24.02,-43.08 60.56,-75.53 109.84,-96.97 49.11,-21.65 102.52,-32.45 160.45,-32.45 72.87,0 132.78,14.59 179.04,43.94 46.48,29.35 76.35,71.06 89.31,124.99l-110.27 13.34c-10.59,-35.85 -29.18,-62.79 -56.25,-81 -26.77,-18.03 -59.22,-27.11 -97.27,-27.11 -57.54,0 -104.24,16.31 -140.35,48.94 -35.89,32.75 -53.84,84.27 -53.84,154.98 0,71.75 17.3,123.78 51.91,156.23 34.82,32.41 80.01,48.72 135.57,48.72 44.98,0 82.38,-10.8 112.2,-32.58 30.08,-21.65 49.11,-55.13 57.11,-100.28zm648.69 128.77c-42.39,28.66 -83.24,48.72 -122.4,60.6 -39.12,11.84 -81.09,17.65 -126.06,17.65 -73.94,0 -130.8,-14.25 -170.61,-42.91 -39.77,-28.49 -59.7,-65.03 -59.7,-109.49 0,-26.12 7.62,-49.97 22.51,-71.62 15.15,-21.61 34.82,-38.78 59.05,-51.82 24.45,-13.04 51.65,-23.03 82.16,-29.7 22.47,-4.65 56.42,-9.08 101.62,-13.56 92.1,-8.61 160.24,-19.07 203.71,-31.07 0.43,-12.35 0.65,-20.27 0.65,-23.54 0,-36.71 -10.8,-62.62 -32.45,-77.73 -29.18,-20.44 -72.65,-30.56 -130.15,-30.56 -53.84,0 -93.61,7.53 -119.18,22.47 -25.69,14.93 -44.5,41.4 -56.86,79.49l-111.56 -12.35c10.16,-37.96 26.81,-68.69 50.14,-92.02 23.37,-23.33 57.11,-41.19 101.23,-53.93 43.86,-12.52 95.12,-18.85 153.09,-18.85 57.5,0 104.41,5.34 140.52,16.14 35.89,10.8 62.49,24.19 79.36,40.5 16.87,16.31 28.75,36.93 35.68,61.8 3.7,15.45 5.64,43.25 5.64,83.24l0 120.17c0,83.97 2.37,136.99 7.14,159.46 4.52,22.51 14.03,43.94 27.89,64.56l-119.39 0c-11.45,-19.07 -18.81,-41.36 -22.04,-66.93zm-9.08 -200.86c-41.53,13.39 -103.81,24.7 -186.83,34 -47.13,5.29 -80.44,11.32 -99.89,18.03 -19.45,6.67 -34.39,16.48 -44.98,29.18 -10.59,12.87 -16.01,27.11 -16.01,42.91 0,23.84 11.49,43.94 34.6,59.91 23.16,15.97 56.9,24.02 101.19,24.02 43.9,0 83.07,-7.53 117.41,-22.81 34.17,-15.11 59.48,-35.89 75.49,-62.15 12.31,-20.44 18.38,-50.49 18.38,-90.12l0.65 -32.97zm-240.03 -332.65l83.02 -141.13 150.51 0 -138.8 141.13 -94.73 0zm529.56 600.44l0 -534.55 102.48 0 0 81.9c26.17,-37.96 50.4,-63.01 72.65,-75.02 22.29,-12.22 46.74,-18.21 73.34,-18.21 38.48,0 77.6,9.6 117.41,28.66l-40.67 83.58c-27.67,-12.35 -55.35,-18.51 -83.02,-18.51 -24.88,0 -47.13,5.98 -66.8,17.82 -19.71,11.88 -33.74,28.32 -42.18,49.45 -12.78,32.11 -19.02,67.27 -19.02,105.58l0 279.28 -114.18 0zm433.32 -634.44l0 -102.99 114.18 0 0 102.99 -114.18 0zm0 634.44l0 -534.55 114.18 0 0 534.55 -114.18 0zm245.45 -267.27c0,-98.69 34.6,-171.81 103.98,-219.37 57.76,-39.47 128.47,-59.22 211.71,-59.22 92.32,0 168.03,24.02 226.82,72.09 58.62,47.9 88.02,114.31 88.02,198.97 0,68.65 -12.95,122.53 -38.91,161.87 -25.95,39.29 -63.83,69.85 -113.54,91.63 -49.5,21.82 -103.81,32.62 -162.39,32.62 -94.3,0 -170.39,-23.84 -228.58,-71.75 -58.15,-47.9 -87.11,-116.9 -87.11,-206.85zm116.77 0.17c0,68.3 18.81,119.48 56.42,153.31 37.83,34 85.22,50.96 142.5,50.96 56.64,0 103.77,-16.96 141.64,-51.13 37.62,-34.17 56.42,-86.21 56.42,-156.06 0,-65.89 -19.02,-115.86 -56.9,-149.69 -37.83,-33.96 -84.96,-50.96 -141.17,-50.96 -57.29,0 -104.67,16.83 -142.5,50.61 -37.62,33.83 -56.42,84.83 -56.42,152.96z"/>
  </g>
 </g>
</svg>
