<?xml version="1.0" encoding="UTF-8"?>
<!DOCTYPE svg PUBLIC "-//W3C//DTD SVG 1.1//EN" "http://www.w3.org/Graphics/SVG/1.1/DTD/svg11.dtd">
<!-- Creator: CorelDRAW 2020 (64 Bit) -->
<svg xmlns="http://www.w3.org/2000/svg" xml:space="preserve" width="18.6487mm" height="20.0929mm" version="1.1" style="shape-rendering:geometricPrecision; text-rendering:geometricPrecision; image-rendering:optimizeQuality; fill-rule:evenodd; clip-rule:evenodd"
viewBox="0 0 99.2 106.88"
 xmlns:xlink="http://www.w3.org/1999/xlink"
 xmlns:xodm="http://www.corel.com/coreldraw/odm/2003">
 <defs>
  <style type="text/css">
   <![CDATA[
    .fil0 {fill:#1E5D9D}
   ]]>
  </style>
 </defs>
 <g id="Camada_x0020_1">
  <metadata id="CorelCorpID_0Corel-Layer"/>
  <path class="fil0" d="M4.03 0.23l16.72 7.06c1.27,0.54 1.29,1.98 1.23,2.07l0 10.92 75.25 10.34c1.26,0.17 1.98,1.42 1.98,2.72l0 25.05c0,6.63 -5.42,12.05 -12.05,12.05l-58.93 0c-2.28,0 -4.42,-0.64 -6.25,-1.76l0 8.99c0,2.44 2.3,5.35 5.79,5.35l9.02 0 47.55 0 1.58 0c5.15,0 10.36,6.03 10.36,11.94 0,6.6 -5.35,11.94 -11.94,11.94 -6.6,0 -11.94,-5.35 -11.94,-11.94 0,-2.25 0.62,-4.35 1.7,-6.14l-27.06 0c1.08,1.79 1.7,3.9 1.7,6.14 0,6.6 -5.35,11.94 -11.94,11.94 -6.6,0 -11.94,-5.35 -11.94,-11.94 0,-2.27 0.63,-4.39 1.73,-6.19 -6.79,-0.56 -10.4,-5.91 -10.4,-11.1l0 -19.28 0 -25.05c0,-3.57 -0.53,-7.38 0,-10l0 -11.66 -14.4 -6.08c-1.47,-0.62 -2.16,-2.33 -1.54,-3.8l0 0c0.62,-1.47 2.33,-2.16 3.8,-1.54zm80.31 100.77c-3.34,0 -6.05,-2.71 -6.05,-6.05 0,-3.34 2.71,-6.05 6.05,-6.05 3.34,0 6.05,2.71 6.05,6.05 0,3.34 -2.71,6.05 -6.05,6.05zm-47.55 0c-3.34,0 -6.05,-2.71 -6.05,-6.05 0,-3.34 2.71,-6.05 6.05,-6.05 3.34,0 6.05,2.71 6.05,6.05 0,3.34 -2.71,6.05 -6.05,6.05z"/>
 </g>
</svg>
