<?xml version="1.0" encoding="UTF-8"?>
<!DOCTYPE svg PUBLIC "-//W3C//DTD SVG 1.1//EN" "http://www.w3.org/Graphics/SVG/1.1/DTD/svg11.dtd">
<!-- Creator: CorelDRAW 2020 (64 Bit) -->
<svg xmlns="http://www.w3.org/2000/svg" xml:space="preserve" width="16.683mm" height="12.0355mm" version="1.1" style="shape-rendering:geometricPrecision; text-rendering:geometricPrecision; image-rendering:optimizeQuality; fill-rule:evenodd; clip-rule:evenodd"
viewBox="0 0 462.99 334.01"
 xmlns:xlink="http://www.w3.org/1999/xlink"
 xmlns:xodm="http://www.corel.com/coreldraw/odm/2003">
 <defs>
  <style type="text/css">
   <![CDATA[
    .fil2 {fill:#373435}
    .fil0 {fill:#0079BE}
    .fil1 {fill:#373435;fill-rule:nonzero}
   ]]>
  </style>
 </defs>
 <g id="Camada_x0020_1">
  <metadata id="CorelCorpID_0Corel-Layer"/>
  <g id="_2447412143536">
   <path class="fil0" d="M211.07 0c-51.52,0 -93.29,41.77 -93.29,93.29 0,51.52 41.77,93.29 93.29,93.29l47.28 0 1.83 0 0 -0.02c50.68,-0.98 91.46,-42.36 91.46,-93.27 0,-50.91 -40.78,-92.29 -91.46,-93.27l0 -0.02 -1.83 0 -47.28 0zm1.24 7.4c47.43,0 85.89,38.45 85.89,85.89 0,47.43 -38.45,85.89 -85.89,85.89 -47.43,0 -85.89,-38.45 -85.89,-85.89 0,-47.43 38.45,-85.89 85.89,-85.89zm18.26 35.27c20.73,7.48 35.54,27.32 35.54,50.62 0,23.3 -14.81,43.14 -35.54,50.62l0 -101.24zm-39.49 100.07c-19.16,-8.23 -32.58,-27.27 -32.58,-49.45 0,-22.18 13.42,-41.22 32.58,-49.45l0 98.9z"/>
   <path class="fil1" d="M0.1 206.07l35 0c6.37,0 11.94,1.43 16.75,4.27 4.81,2.86 8.58,6.93 11.31,12.21 2.72,5.28 4.09,11.22 4.09,17.84 0,6.85 -1.25,12.83 -3.74,17.9 -2.49,5.07 -6.22,9.11 -11.16,12.13 -4.96,3 -10.27,4.51 -15.97,4.51l-36.28 0 0 -4.29 5.39 0c1.31,0 2.3,-0.38 2.98,-1.14 0.67,-0.76 1.01,-1.83 1.01,-3.2l0 -51.93c0,-1.4 -0.35,-2.42 -1.05,-3.05 -0.71,-0.64 -1.88,-0.95 -3.55,-0.95l-4.78 0 0 -4.29zm32 64.57c4.04,0 7.62,-1.08 10.73,-3.23 3.12,-2.15 5.38,-5.07 6.76,-8.79 1.38,-3.72 2.07,-9.47 2.07,-17.28 0,-8.22 -0.81,-14.5 -2.45,-18.87 -1.64,-4.37 -3.85,-7.49 -6.64,-9.33 -2.79,-1.86 -6.91,-2.78 -12.32,-2.78 -2.98,0 -4.84,0.27 -5.59,0.8 -0.75,0.52 -1.13,1.49 -1.13,2.89l0 52.2c0,1.56 0.3,2.67 0.9,3.36 0.6,0.68 1.58,1.03 2.9,1.03l4.76 0zm45.71 -64.38c1.97,0 3.65,0.73 5.06,2.21 1.41,1.48 2.12,3.26 2.12,5.37 0,2.11 -0.71,3.9 -2.12,5.37 -1.41,1.48 -3.1,2.21 -5.06,2.21 -2.01,0 -3.71,-0.75 -5.12,-2.23 -1.41,-1.5 -2.12,-3.27 -2.12,-5.36 0,-2.11 0.7,-3.89 2.12,-5.37 1.41,-1.48 3.11,-2.21 5.12,-2.21zm-11.38 25.09l18.39 -0.86 0 37.12c0,1 0.3,1.77 0.9,2.32 0.6,0.54 1.5,0.81 2.74,0.81l2.76 0 0 4.2 -24.78 0 0 -4.2 2.73 0c1.47,0 2.52,-0.37 3.12,-1.08 0.6,-0.72 0.9,-1.96 0.9,-3.74l0 -25.37c0,-1.59 -0.44,-2.83 -1.31,-3.7 -0.87,-0.87 -2.06,-1.3 -3.59,-1.3l-1.86 0 0 -4.2zm77.24 39.39l0 4.2 -24.69 0 0 -4.2 2.58 0c1.38,0 2.4,-0.38 3.08,-1.13 0.67,-0.75 1,-1.83 1,-3.26l0 -18.96c0,-3.23 -0.69,-5.71 -2.09,-7.44 -1.38,-1.73 -3.2,-2.59 -5.45,-2.59 -3.06,0 -5.57,1.22 -7.5,3.67 -1.94,2.43 -2.9,6.01 -2.9,10.72l0 14.61c0,1.43 0.35,2.51 1.04,3.26 0.69,0.75 1.59,1.13 2.67,1.13l3.14 0 0 4.2 -25.78 0 0 -4.2 3.37 0c1.29,0 2.28,-0.38 2.94,-1.13 0.66,-0.75 0.99,-1.85 0.99,-3.27l0 -26.07c0,-1.49 -0.48,-2.69 -1.43,-3.58 -0.95,-0.89 -2.21,-1.33 -3.75,-1.33l-1.76 0 0 -4 17.13 -0.95c0.63,2.67 1.11,5.87 1.44,9.57 2.4,-3.45 4.97,-6.04 7.71,-7.76 2.72,-1.72 5.59,-2.58 8.61,-2.58 4.12,0 7.36,1.45 9.73,4.34 2.34,2.89 3.52,6.93 3.52,12.1l0 20.28c0,1.56 0.33,2.67 0.99,3.36 0.66,0.68 1.71,1.03 3.15,1.03l2.25 0zm39.47 -17.26l-29.02 0c0.09,6.1 1.25,10.6 3.5,13.5 2.24,2.89 5.11,4.34 8.62,4.34 2.52,0 4.91,-0.75 7.17,-2.23 2.25,-1.49 4.57,-4.18 6.94,-8.07l3.25 2.19c-2.49,4.61 -5.35,7.92 -8.56,9.9 -3.21,1.99 -7.15,2.97 -11.79,2.97 -6.74,0 -12.21,-2.18 -16.39,-6.52 -4.16,-4.34 -6.25,-9.92 -6.25,-16.7 0,-6.8 2.1,-12.48 6.32,-17.04 4.21,-4.56 9.37,-6.85 15.5,-6.85 4.24,0 7.89,0.92 10.94,2.75 3.05,1.83 5.41,4.52 7.1,8.05 1.7,3.51 2.58,8.09 2.67,13.72zm-29.02 -4.2l13.85 0c1.31,0 2.24,-0.35 2.79,-1.04 0.56,-0.68 0.84,-1.92 0.84,-3.74 0,-3.61 -0.78,-6.41 -2.34,-8.38 -1.56,-1.99 -3.56,-2.97 -5.98,-2.97 -2.87,0 -5.05,1.33 -6.58,4.02 -1.52,2.67 -2.37,6.71 -2.58,12.1zm55.97 21.46l0 4.2 -28.75 0 0 -4.2 3.55 0c1.46,0 2.52,-0.3 3.2,-0.9 0.67,-0.62 1.01,-1.43 1.01,-2.46l0 -25.9c0,-2.08 -0.45,-3.61 -1.35,-4.58 -0.9,-0.97 -2.16,-1.45 -3.79,-1.45l-2.34 0 0 -4.1 17.66 -0.95 0 14.23c1.02,-4.77 2.79,-8.43 5.33,-10.97 2.54,-2.56 5.41,-3.83 8.58,-3.83 2.72,0 4.87,0.76 6.44,2.3 1.58,1.54 2.36,3.53 2.36,5.96 0,2.08 -0.56,3.77 -1.65,5.06 -1.1,1.29 -2.43,1.94 -4.03,1.94 -1.4,0 -2.61,-0.56 -3.62,-1.69 -1.01,-1.11 -1.52,-2.54 -1.52,-4.29 0,-0.97 0.24,-1.99 0.7,-3.04 0.26,-0.61 0.38,-1.02 0.38,-1.27 0,-0.43 -0.09,-0.75 -0.29,-0.95 -0.18,-0.21 -0.48,-0.3 -0.89,-0.3 -1.04,0 -2.18,0.65 -3.42,1.96 -1.91,2.03 -3.52,5.18 -4.81,9.47 -1.3,4.27 -1.95,8.6 -1.95,12.95l0 9.44c0,1.1 0.29,1.92 0.84,2.51 0.56,0.57 1.32,0.86 2.33,0.86l6.02 0zm36.45 -38.1l2.93 -3.67 2.7 0 0.9 14.88 -3.61 0c-1.88,-3.93 -3.92,-6.69 -6.16,-8.3 -2.24,-1.59 -4.94,-2.38 -8.14,-2.38 -2.73,0 -4.84,0.56 -6.26,1.67 -1.43,1.13 -2.15,2.53 -2.15,4.25 0,1.67 0.56,2.94 1.67,3.81 1.11,0.91 4.16,1.89 9.12,2.96 4.51,0.99 7.51,1.8 9,2.45 2.84,1.21 5.06,3 6.66,5.4 1.61,2.38 2.4,5.18 2.4,8.38 0,4.04 -1.53,7.42 -4.58,10.17 -3.06,2.75 -7.09,4.12 -12.06,4.12 -2.4,0 -4.57,-0.3 -6.52,-0.91 -1.95,-0.6 -3.98,-1.67 -6.08,-3.18l-3.11 3.89 -3.33 0 -0.81 -16.4 3.7 0c3.09,8.27 8.41,12.4 15.95,12.4 3.09,0 5.47,-0.64 7.1,-1.91 1.64,-1.27 2.45,-2.8 2.45,-4.58 0,-1.61 -0.51,-2.83 -1.53,-3.67 -1.02,-0.84 -3.74,-1.75 -8.16,-2.7 -4.78,-1.03 -8.02,-1.91 -9.76,-2.65 -2.96,-1.21 -5.2,-2.89 -6.68,-5.06 -1.5,-2.15 -2.25,-4.75 -2.25,-7.79 0,-4.34 1.37,-7.9 4.09,-10.68 2.72,-2.78 6.36,-4.16 10.92,-4.16 2.22,0 4.22,0.27 5.99,0.82 1.76,0.56 3.65,1.5 5.63,2.85zm83.86 -21.33l3.08 -6.85 3.24 0 1.08 27.66 -4.06 0c-1.26,-7.98 -3.65,-13.89 -7.14,-17.76 -3.5,-3.86 -7.49,-5.8 -11.99,-5.8 -4.94,0 -9.03,2.48 -12.26,7.45 -3.23,4.96 -4.85,12.8 -4.85,23.51 0,11.32 1.77,19.73 5.33,25.23 2.85,4.31 7.04,6.47 12.6,6.47 5.54,0 10.21,-2.16 14.01,-6.47 2.73,-3.12 4.64,-7.74 5.72,-13.85l3.97 0c-0.93,7.85 -3.77,14.05 -8.5,18.61 -4.72,4.56 -10.53,6.85 -17.43,6.85 -8.92,0 -16.4,-3.32 -22.44,-9.98 -6.02,-6.66 -9.04,-15.18 -9.04,-25.58 0,-11.54 3.49,-20.76 10.44,-27.66 5.92,-5.86 12.87,-8.79 20.82,-8.79 3.14,0 6.05,0.52 8.74,1.56 2.69,1.05 5.57,2.83 8.65,5.39zm7.29 -5.23l19.29 -1.05 0 62.12c0,1.11 0.33,2 0.99,2.64 0.66,0.64 1.62,0.95 2.85,0.95l2.55 0 0 4.2 -24.69 0 0 -4.2 2.82 0c1.29,0 2.27,-0.37 2.9,-1.1 0.63,-0.73 0.95,-1.84 0.95,-3.34l0 -51.07c0,-1.59 -0.41,-2.81 -1.23,-3.67 -0.83,-0.86 -1.94,-1.29 -3.35,-1.29l-3.08 0 0 -4.2zm21.89 25.27l18.3 -1.15 0 29.03c0,2.7 0.69,4.83 2.06,6.39 1.38,1.57 3.17,2.35 5.36,2.35 3.11,0 5.59,-1.3 7.45,-3.91 1.86,-2.61 2.79,-5.66 2.79,-9.16l0 -14.24c0,-1.67 -0.43,-2.94 -1.32,-3.81 -0.87,-0.87 -2.07,-1.3 -3.59,-1.3l-2.03 0 0 -4.2 18.57 -1.15 0 35.43c0,1.59 0.47,2.84 1.38,3.75 0.93,0.91 2.15,1.35 3.66,1.35l1.89 0 0 4.2 -17.03 0.57c-0.72,-3.13 -1.14,-6.49 -1.26,-10.05 -2.84,3.83 -5.57,6.53 -8.22,8.09 -2.63,1.56 -5.38,2.34 -8.22,2.34 -2.81,0 -5.18,-0.62 -7.09,-1.86 -1.92,-1.24 -3.46,-3.21 -4.6,-5.91 -1.14,-2.7 -1.71,-5.99 -1.71,-9.84l0 -17.33c0,-1.89 -0.45,-3.26 -1.33,-4.07 -0.9,-0.83 -2.58,-1.27 -5.06,-1.33l0 -4.2zm50.19 -25.27l18.84 -1.05 0 32.33c2.21,-3.02 4.49,-5.17 6.86,-6.46 2.37,-1.29 4.97,-1.94 7.8,-1.94 5.18,0 9.48,2.08 12.92,6.25 3.42,4.15 5.14,9.77 5.14,16.85 0,7.49 -1.98,13.48 -5.93,18.01 -3.97,4.51 -8.98,6.77 -15.08,6.77 -3.2,0 -6.1,-0.67 -8.67,-2 -2.57,-1.33 -4.85,-3.32 -6.82,-5.98 -1.35,2.18 -3.67,4.83 -6.94,7.98l-2.61 -1.53c1.14,-5.71 1.71,-11.49 1.71,-17.36l0 -40.2c0,-2.35 -0.22,-4.02 -0.67,-5.02 -0.47,-0.99 -1.07,-1.67 -1.83,-2.05 -0.56,-0.27 -2.12,-0.41 -4.7,-0.41l0 -4.2zm28.2 29.56c-1.71,0 -3.32,0.62 -4.82,1.86 -1.49,1.24 -2.61,3.03 -3.38,5.4 -0.77,2.35 -1.15,6.03 -1.15,11.03 0,6.79 0.84,11.56 2.52,14.31 1.68,2.75 3.86,4.12 6.52,4.12 2.75,0 5.11,-1.53 7.09,-4.56 1.98,-3.04 2.97,-7.71 2.97,-14 0,-6.3 -0.93,-10.91 -2.81,-13.8 -1.88,-2.91 -4.19,-4.36 -6.94,-4.36z"/>
   <path class="fil1" d="M-0 298.19l17.99 0 0 2.19 -3.26 0c-0.7,0 -1.2,0.14 -1.52,0.41 -0.32,0.28 -0.48,0.69 -0.48,1.22l0 27.21c0,0.64 0.17,1.09 0.5,1.35 0.42,0.35 1.04,0.53 1.85,0.53l2.9 0 0 2.19 -17.99 0 0 -2.19 2.76 0c0.95,0 1.62,-0.16 2.01,-0.48 0.39,-0.32 0.58,-0.78 0.58,-1.4l0 -26.9c0,-0.67 -0.18,-1.15 -0.54,-1.47 -0.36,-0.32 -0.92,-0.48 -1.68,-0.48l-3.14 0 0 -2.19zm21.58 0l10.87 0 19.03 24.07 0 -16.38c0,-1.61 -0.46,-2.91 -1.37,-3.88 -0.91,-0.97 -2.2,-1.52 -3.88,-1.63l0 -2.19 12.79 0 0 2.19c-1.79,0.19 -3.07,0.72 -3.84,1.6 -0.78,0.87 -1.17,2.18 -1.17,3.9l0 27.4 -2.75 0 -21.66 -27.68 0 19.19c0,2.2 0.5,3.79 1.51,4.8 1,1 2.25,1.51 3.74,1.51l0.59 0 0 2.19 -14.15 0 0 -2.19 0.98 0c1.39,0 2.57,-0.55 3.52,-1.65 0.95,-1.11 1.43,-2.53 1.43,-4.26l0 -22.62c-1.06,-1.46 -2.42,-2.19 -4.07,-2.19l-1.57 0 0 -2.19zm41.18 0l30.67 0 0.78 13.32 -2.14 0c-0.5,-2.86 -1.17,-5.1 -1.97,-6.7 -0.81,-1.6 -1.73,-2.75 -2.77,-3.42 -1.04,-0.67 -2.17,-1.01 -3.41,-1.01 -0.71,0 -1.23,0.15 -1.56,0.44 -0.33,0.3 -0.5,0.72 -0.5,1.27l0 27.23c0,0.52 0.16,0.95 0.49,1.28 0.32,0.33 0.71,0.5 1.17,0.5l3.98 0 0 2.19 -18.77 0 0 -2.19 3.79 0c0.57,0 1.02,-0.16 1.35,-0.49 0.33,-0.32 0.49,-0.76 0.49,-1.3l0 -27.09c0,-0.63 -0.17,-1.1 -0.51,-1.4 -0.34,-0.3 -0.87,-0.46 -1.6,-0.46 -4.04,0 -6.76,3.71 -8.19,11.13l-2.09 0 0.78 -13.32zm34.38 0l30.68 0 0.68 12.25 -2.09 0c-0.49,-2.89 -1.11,-4.98 -1.85,-6.26 -0.75,-1.27 -1.72,-2.23 -2.92,-2.86 -1.2,-0.63 -2.77,-0.95 -4.72,-0.95l-4.83 0c-0.75,0 -1.29,0.15 -1.62,0.44 -0.33,0.29 -0.5,0.7 -0.5,1.22l0 12.19 1.65 0c1.9,0 3.37,-0.53 4.42,-1.61 1.04,-1.08 1.66,-2.81 1.85,-5.2l2.09 0 0 16.34 -2.09 0c-0.14,-2.71 -0.75,-4.62 -1.8,-5.73 -1.05,-1.11 -2.64,-1.66 -4.77,-1.66l-1.36 0 0 13c0,0.57 0.17,0.97 0.5,1.21 0.51,0.35 1.24,0.53 2.2,0.53l4.24 0c2.91,0 5.29,-0.93 7.13,-2.79 1.85,-1.86 2.99,-4.65 3.44,-8.4l2.09 0 -0.54 13.37 -31.89 0 0 -2.19 3.16 0c0.71,0 1.25,-0.18 1.63,-0.54 0.37,-0.36 0.56,-0.86 0.56,-1.47l0 -27.04c0,-0.57 -0.19,-0.99 -0.56,-1.26 -0.37,-0.27 -1.05,-0.41 -2.01,-0.41l-2.78 0 0 -2.19zm38.06 0l18.32 0c2.98,0 5.41,0.38 7.28,1.15 1.88,0.76 3.27,1.81 4.19,3.12 0.92,1.32 1.38,2.79 1.38,4.39 0,2.58 -1.15,4.66 -3.46,6.26 -1.76,1.22 -4.46,2 -8.11,2.36 1.84,0.3 3.25,0.79 4.24,1.44 0.99,0.65 1.86,1.63 2.63,2.94 1,1.71 1.81,3.76 2.44,6.15 0.39,1.54 0.74,2.51 1.04,2.9 0.3,0.4 0.64,0.59 1.02,0.59 1.04,0 1.66,-1.39 1.86,-4.18l2.09 0c-0.16,2.95 -0.81,5.07 -1.97,6.34 -1.15,1.28 -2.78,1.92 -4.88,1.92 -1.5,0 -2.71,-0.31 -3.61,-0.92 -0.91,-0.61 -1.6,-1.52 -2.08,-2.71 -0.28,-0.68 -0.68,-2.28 -1.19,-4.8 -0.58,-2.95 -1.11,-4.93 -1.57,-5.94 -0.47,-1.01 -1.08,-1.77 -1.82,-2.25 -0.75,-0.49 -1.66,-0.74 -2.76,-0.74l-2.58 0 0 12.97c0,0.57 0.17,1 0.5,1.31 0.47,0.4 1.03,0.59 1.66,0.59l3.19 0 0 2.19 -17.79 0 0 -2.19 2.76 0c0.7,0 1.25,-0.19 1.61,-0.56 0.36,-0.37 0.54,-0.89 0.54,-1.55l0 -26.5c0,-0.73 -0.16,-1.26 -0.5,-1.6 -0.33,-0.34 -0.81,-0.51 -1.42,-0.51l-2.99 0 0 -2.19zm12.45 15.9l2.96 0c2.63,0 4.7,-0.67 6.21,-2.01 1.14,-1.03 1.71,-2.76 1.71,-5.19 0,-2.24 -0.56,-3.88 -1.69,-4.92 -1.12,-1.03 -3.07,-1.55 -5.83,-1.55 -1.49,0 -2.42,0.16 -2.8,0.49 -0.38,0.32 -0.57,1.04 -0.57,2.16l0 11.01zm26.06 -15.9l10.87 0 19.03 24.07 0 -16.38c0,-1.61 -0.46,-2.91 -1.37,-3.88 -0.91,-0.97 -2.2,-1.52 -3.88,-1.63l0 -2.19 12.79 0 0 2.19c-1.79,0.19 -3.07,0.72 -3.84,1.6 -0.78,0.87 -1.17,2.18 -1.17,3.9l0 27.4 -2.75 0 -21.66 -27.68 0 19.19c0,2.2 0.5,3.79 1.51,4.8 1,1 2.25,1.51 3.74,1.51l0.59 0 0 2.19 -14.15 0 0 -2.19 0.98 0c1.39,0 2.57,-0.55 3.52,-1.65 0.95,-1.11 1.43,-2.53 1.43,-4.26l0 -22.62c-1.06,-1.46 -2.42,-2.19 -4.07,-2.19l-1.57 0 0 -2.19zm58.54 -0.88l13.12 31.51c0.38,0.88 0.79,1.48 1.25,1.8 0.44,0.32 1.04,0.48 1.77,0.48l1.3 0 0 2.19 -16.48 0 0 -2.19 1.55 0c1.22,0 2.05,-0.14 2.51,-0.41 0.46,-0.27 0.69,-0.62 0.69,-1.07 0,-0.35 -0.1,-0.75 -0.28,-1.21l-2.71 -6.51 -13.16 0 -1.25 2.97c-0.52,1.24 -0.78,2.15 -0.78,2.75 0,1.03 0.38,1.86 1.14,2.5 0.76,0.64 1.8,0.97 3.11,0.97l1.12 0 0 2.19 -13.32 0 0 -2.19 0.76 0c0.85,0 1.6,-0.27 2.25,-0.81 0.92,-0.75 1.63,-1.73 2.14,-2.92l12.66 -30.06 2.62 0zm-3.83 8.89l-5.63 13.38 11.21 0 -5.58 -13.38zm23.35 -8.01l30.67 0 0.78 13.32 -2.14 0c-0.5,-2.86 -1.17,-5.1 -1.97,-6.7 -0.81,-1.6 -1.73,-2.75 -2.77,-3.42 -1.04,-0.67 -2.17,-1.01 -3.41,-1.01 -0.71,0 -1.23,0.15 -1.56,0.44 -0.33,0.3 -0.5,0.72 -0.5,1.27l0 27.23c0,0.52 0.16,0.95 0.49,1.28 0.32,0.33 0.71,0.5 1.17,0.5l3.98 0 0 2.19 -18.77 0 0 -2.19 3.79 0c0.57,0 1.02,-0.16 1.35,-0.49 0.33,-0.32 0.49,-0.76 0.49,-1.3l0 -27.09c0,-0.63 -0.17,-1.1 -0.51,-1.4 -0.34,-0.3 -0.87,-0.46 -1.6,-0.46 -4.04,0 -6.77,3.71 -8.19,11.13l-2.09 0 0.78 -13.32zm34.43 0l17.99 0 0 2.19 -3.26 0c-0.7,0 -1.2,0.14 -1.52,0.41 -0.32,0.28 -0.48,0.69 -0.48,1.22l0 27.21c0,0.64 0.17,1.09 0.5,1.35 0.42,0.35 1.05,0.53 1.85,0.53l2.9 0 0 2.19 -17.99 0 0 -2.19 2.75 0c0.96,0 1.62,-0.16 2.01,-0.48 0.39,-0.32 0.58,-0.78 0.58,-1.4l0 -26.9c0,-0.67 -0.18,-1.15 -0.53,-1.47 -0.36,-0.32 -0.92,-0.48 -1.68,-0.48l-3.14 0 0 -2.19zm39.88 -0.88c3.31,0 6.36,0.8 9.15,2.4 2.79,1.6 4.96,3.77 6.53,6.53 1.55,2.76 2.33,5.88 2.33,9.34 0,5.27 -1.72,9.66 -5.16,13.17 -3.44,3.51 -7.71,5.27 -12.8,5.27 -3.38,0 -6.42,-0.8 -9.1,-2.4 -2.68,-1.6 -4.8,-3.75 -6.34,-6.47 -1.55,-2.71 -2.33,-5.86 -2.33,-9.46 0,-5.32 1.7,-9.72 5.11,-13.19 3.39,-3.46 7.61,-5.2 12.61,-5.2zm0.13 2.29c-1.88,0 -3.52,0.52 -4.91,1.55 -1.38,1.04 -2.49,2.71 -3.31,5.01 -0.82,2.31 -1.22,5.47 -1.22,9.48 0,4.22 0.37,7.42 1.13,9.59 0.75,2.18 1.85,3.78 3.3,4.83 1.44,1.05 3.13,1.57 5.04,1.57 2.84,0 5.1,-1.22 6.8,-3.64 1.7,-2.43 2.54,-6.64 2.54,-12.66 0,-4.2 -0.36,-7.35 -1.09,-9.47 -0.73,-2.11 -1.82,-3.68 -3.26,-4.72 -1.44,-1.04 -3.12,-1.55 -5.02,-1.55zm22.06 -1.41l10.87 0 19.03 24.07 0 -16.38c0,-1.61 -0.45,-2.91 -1.37,-3.88 -0.91,-0.97 -2.2,-1.52 -3.88,-1.63l0 -2.19 12.79 0 0 2.19c-1.79,0.19 -3.07,0.72 -3.84,1.6 -0.78,0.87 -1.17,2.18 -1.17,3.9l0 27.4 -2.75 0 -21.66 -27.68 0 19.19c0,2.2 0.5,3.79 1.51,4.8 1,1 2.24,1.51 3.73,1.51l0.59 0 0 2.19 -14.15 0 0 -2.19 0.98 0c1.39,0 2.57,-0.55 3.52,-1.65 0.95,-1.11 1.43,-2.53 1.43,-4.26l0 -22.62c-1.06,-1.46 -2.42,-2.19 -4.07,-2.19l-1.57 0 0 -2.19zm58.54 -0.88l13.12 31.51c0.38,0.88 0.79,1.48 1.25,1.8 0.44,0.32 1.04,0.48 1.77,0.48l1.3 0 0 2.19 -16.48 0 0 -2.19 1.55 0c1.22,0 2.05,-0.14 2.51,-0.41 0.46,-0.27 0.69,-0.62 0.69,-1.07 0,-0.35 -0.1,-0.75 -0.28,-1.21l-2.71 -6.51 -13.16 0 -1.25 2.97c-0.52,1.24 -0.78,2.15 -0.78,2.75 0,1.03 0.38,1.86 1.13,2.5 0.76,0.64 1.8,0.97 3.11,0.97l1.12 0 0 2.19 -13.32 0 0 -2.19 0.76 0c0.85,0 1.6,-0.27 2.25,-0.81 0.92,-0.75 1.63,-1.73 2.14,-2.92l12.66 -30.06 2.62 0zm-3.82 8.89l-5.63 13.38 11.2 0 -5.57 -13.38zm22.86 -5.83l0 -2.19 18.09 0 0 2.19 -3.05 0c-0.87,0 -1.47,0.17 -1.82,0.5 -0.35,0.33 -0.52,0.87 -0.52,1.61l0 26.14c0,1.06 0.17,1.74 0.5,2.03 0.33,0.29 1.12,0.44 2.35,0.44l5.07 0c1.89,0 3.65,-0.9 5.28,-2.69 1.64,-1.79 2.89,-4.65 3.76,-8.59l2.09 0 -0.78 13.47 -30.97 0 0 -2.19 3.12 0c0.68,0 1.2,-0.18 1.55,-0.53 0.35,-0.35 0.53,-0.84 0.53,-1.47l0 -26.88c0,-0.65 -0.18,-1.13 -0.54,-1.42 -0.36,-0.29 -0.97,-0.44 -1.85,-0.44l-2.81 0z"/>
   <path class="fil1" d="M454.44 296.95l2.94 0c0.57,0 1.01,0.13 1.32,0.39 0.31,0.26 0.47,0.6 0.47,1.02 0,0.25 -0.06,0.47 -0.19,0.67 -0.12,0.2 -0.31,0.35 -0.54,0.47 -0.23,0.12 -0.61,0.2 -1.11,0.25 0.37,0.1 0.62,0.2 0.76,0.29 0.14,0.09 0.25,0.22 0.34,0.37 0.08,0.15 0.18,0.46 0.29,0.93 0.08,0.34 0.16,0.57 0.25,0.69 0.07,0.09 0.14,0.14 0.22,0.14 0.08,0 0.15,-0.06 0.22,-0.17 0.07,-0.12 0.11,-0.32 0.12,-0.62l0.26 0c-0.05,0.87 -0.37,1.31 -0.96,1.31 -0.19,0 -0.35,-0.05 -0.49,-0.14 -0.14,-0.1 -0.24,-0.24 -0.31,-0.42 -0.05,-0.14 -0.11,-0.5 -0.18,-1.09 -0.04,-0.34 -0.1,-0.58 -0.18,-0.72 -0.08,-0.14 -0.21,-0.26 -0.39,-0.35 -0.18,-0.09 -0.39,-0.13 -0.64,-0.13l-0.47 0 0 2.23c0,0.09 0.02,0.16 0.07,0.2 0.06,0.05 0.16,0.07 0.29,0.07l0.54 0 0 0.29 -2.63 0 0 -0.29 0.56 0c0.12,0 0.21,-0.02 0.27,-0.07 0.06,-0.05 0.09,-0.11 0.09,-0.2l0 -4.54c0,-0.1 -0.03,-0.17 -0.09,-0.22 -0.06,-0.05 -0.15,-0.07 -0.27,-0.07l-0.56 0 0 -0.29zm1.73 2.62l0.68 0c0.45,0 0.8,-0.09 1.06,-0.26 0.26,-0.17 0.38,-0.47 0.38,-0.91 0,-0.3 -0.05,-0.54 -0.14,-0.71 -0.1,-0.17 -0.22,-0.29 -0.38,-0.36 -0.16,-0.06 -0.46,-0.1 -0.92,-0.1 -0.3,0 -0.49,0.02 -0.56,0.06 -0.07,0.04 -0.11,0.11 -0.11,0.22l0 2.05z"/>
   <path class="fil2" d="M457.38 294c3.1,0 5.61,2.51 5.61,5.61 0,3.1 -2.51,5.61 -5.61,5.61 -3.1,0 -5.61,-2.51 -5.61,-5.61 0,-3.1 2.51,-5.61 5.61,-5.61zm0 1c2.54,0 4.61,2.06 4.61,4.61 0,2.55 -2.06,4.61 -4.61,4.61 -2.55,0 -4.61,-2.06 -4.61,-4.61 0,-2.54 2.06,-4.61 4.61,-4.61z"/>
  </g>
 </g>
</svg>
