<?xml version="1.0" encoding="UTF-8"?>
<!DOCTYPE svg PUBLIC "-//W3C//DTD SVG 1.1//EN" "http://www.w3.org/Graphics/SVG/1.1/DTD/svg11.dtd">
<!-- Creator: CorelDRAW 2020 (64 Bit) -->
<svg xmlns="http://www.w3.org/2000/svg" xml:space="preserve" width="17.1406mm" height="12.0044mm" version="1.1" style="shape-rendering:geometricPrecision; text-rendering:geometricPrecision; image-rendering:optimizeQuality; fill-rule:evenodd; clip-rule:evenodd"
viewBox="0 0 14093.84 9870.6"
 xmlns:xlink="http://www.w3.org/1999/xlink"
 xmlns:xodm="http://www.corel.com/coreldraw/odm/2003">
 <defs>
  <style type="text/css">
   <![CDATA[
    .fil0 {fill:#FEFEFE}
   ]]>
  </style>
 </defs>
 <g id="Camada_x0020_1">
  <metadata id="CorelCorpID_0Corel-Layer"/>
  <path class="fil0" d="M1448.64 0l11196.56 0c796.84,0 1448.64,651.8 1448.64,1448.64l0 6973.33c0,796.84 -651.8,1448.64 -1448.64,1448.64l-11196.56 0c-796.76,0 -1448.64,-651.8 -1448.64,-1448.64l0 -6973.33c0,-796.84 651.88,-1448.64 1448.64,-1448.64zm-156.23 9086.01l4000.49 -3840.31 1569.92 1389.93c135.1,106.56 275.54,97.77 420.42,-9.21l1536.21 -1368.88 3953.95 3835.22c-49.25,10.94 -100.31,16.69 -152.77,16.69l-11147.39 0c-62.41,0 -123.01,-8.22 -180.81,-23.43zm12020.7 -523.36l-3931.25 -3806.27 3919.25 -3492.34c20.47,66.19 31.57,136.49 31.57,209.18l0 6924.16c0,56.82 -6.82,112.15 -19.57,165.27zm-8572.85 -3806.19l-3959.29 3807.34c-12.91,-53.45 -19.82,-109.19 -19.82,-166.42l0 -6924.16c0,-73.43 11.35,-144.39 32.23,-211.15l3946.88 3494.39zm-3395.39 -3983.55l5714.38 5027.89 5649.18 -5034.22c-28.78,-3.54 -58.05,-5.43 -87.82,-5.43l-11147.39 0c-43.83,0 -86.75,4.03 -128.35,11.76z"/>
 </g>
</svg>
