<?xml version="1.0" encoding="UTF-8"?>
<!DOCTYPE svg PUBLIC "-//W3C//DTD SVG 1.1//EN" "http://www.w3.org/Graphics/SVG/1.1/DTD/svg11.dtd">
<!-- Creator: CorelDRAW 2020 (64 Bit) -->
<svg xmlns="http://www.w3.org/2000/svg" xml:space="preserve" width="23.0536mm" height="23.0536mm" version="1.1" style="shape-rendering:geometricPrecision; text-rendering:geometricPrecision; image-rendering:optimizeQuality; fill-rule:evenodd; clip-rule:evenodd"
viewBox="0 0 335.8 335.8"
 xmlns:xlink="http://www.w3.org/1999/xlink"
 xmlns:xodm="http://www.corel.com/coreldraw/odm/2003">
 <defs>
  <style type="text/css">
   <![CDATA[
    .fil0 {fill:#3B589E}
   ]]>
  </style>
 </defs>
 <g id="Camada_x0020_1">
  <metadata id="CorelCorpID_0Corel-Layer"/>
  <path class="fil0" d="M56.32 0l223.16 0c30.98,0 56.32,25.35 56.32,56.32l0 223.16c0,30.98 -25.35,56.32 -56.32,56.32l-46.34 0 0 -130.62 42.57 0 5.91 -50.48 -48.48 0 0 -35.65c0,-19.81 13.91,-21.98 27.68,-21.98l23.25 0.19 0.58 -44.2c-75.51,-13.98 -104.98,16.3 -104.98,66l0 35.65 -44.92 0 0 50.48 44.92 0 0 130.62 -123.34 0c-30.98,0 -56.32,-25.35 -56.32,-56.32l0 -223.16c0,-30.98 25.35,-56.32 56.32,-56.32z"/>
 </g>
</svg>
