<?xml version="1.0" encoding="UTF-8"?>
<!DOCTYPE svg PUBLIC "-//W3C//DTD SVG 1.1//EN" "http://www.w3.org/Graphics/SVG/1.1/DTD/svg11.dtd">
<!-- Creator: CorelDRAW 2020 (64 Bit) -->
<svg xmlns="http://www.w3.org/2000/svg" xml:space="preserve" width="27.1468mm" height="27.1467mm" version="1.1" style="shape-rendering:geometricPrecision; text-rendering:geometricPrecision; image-rendering:optimizeQuality; fill-rule:evenodd; clip-rule:evenodd"
viewBox="0 0 822.03 822.03"
 xmlns:xlink="http://www.w3.org/1999/xlink"
 xmlns:xodm="http://www.corel.com/coreldraw/odm/2003">
 <defs>
  <style type="text/css">
   <![CDATA[
    .fil0 {fill:black}
   ]]>
  </style>
 </defs>
 <g id="Camada_x0020_1">
  <metadata id="CorelCorpID_0Corel-Layer"/>
  <path class="fil0" d="M411.02 822.03c227,0 411.02,-184.02 411.01,-411.01 0,-130.38 -60.71,-246.57 -155.41,-321.86l-119.77 221.72 81.33 52.09 53.05 -99.35c0.01,-0.02 0.03,0.05 0.04,0.07 23.9,43.75 37.5,93.95 37.49,147.32 0.01,169.96 -137.78,307.74 -307.74,307.74 -169.96,0 -307.74,-137.78 -307.75,-307.74 0,-169.96 137.78,-307.74 307.75,-307.74 20.21,0 39.96,1.97 59.08,5.69l51.06 -94.01c-35.06,-9.73 -71.98,-14.95 -110.14,-14.95 -227,0 -411.02,184.02 -411.02,411.01 0,227 184.02,411.02 411.02,411.02zm127.06 -494.9l-89.95 166.51 -184.26 -300.32c0,0 -24.8,18.25 -42.95,42.25 -16.6,21.94 -31.85,49.26 -31.85,49.26l258.19 417.01 172.22 -322.56 -81.4 -52.14z"/>
 </g>
</svg>
