<?xml version="1.0" encoding="UTF-8"?>
<!DOCTYPE svg PUBLIC "-//W3C//DTD SVG 1.1//EN" "http://www.w3.org/Graphics/SVG/1.1/DTD/svg11.dtd">
<!-- Creator: CorelDRAW 2020 (64 Bit) -->
<svg xmlns="http://www.w3.org/2000/svg" xml:space="preserve" width="9.0775mm" height="9.0774mm" version="1.1" style="shape-rendering:geometricPrecision; text-rendering:geometricPrecision; image-rendering:optimizeQuality; fill-rule:evenodd; clip-rule:evenodd"
viewBox="0 0 377.58 377.57"
 xmlns:xlink="http://www.w3.org/1999/xlink"
 xmlns:xodm="http://www.corel.com/coreldraw/odm/2003">
 <defs>
  <style type="text/css">
   <![CDATA[
    .fil0 {fill:black}
   ]]>
  </style>
 </defs>
 <g id="Camada_x0020_1">
  <metadata id="CorelCorpID_0Corel-Layer"/>
  <path class="fil0" d="M366.08 11.49l0 0c15.32,15.32 15.33,40.36 -0.01,55.7l-121.6 121.6 121.6 121.6c15.31,15.31 15.32,40.38 0.01,55.7l0 0c-15.32,15.32 -40.39,15.3 -55.7,-0.01l-121.6 -121.6 -121.59 121.59c-15.31,15.31 -40.38,15.32 -55.7,0.01l-0 0c-15.32,-15.32 -15.3,-40.39 0.01,-55.7l121.59 -121.59 -121.59 -121.59c-15.34,-15.34 -15.32,-40.38 -0.01,-55.7l0 0c15.32,-15.32 40.36,-15.33 55.7,0.01l121.59 121.59 121.6 -121.6c15.34,-15.34 40.38,-15.32 55.7,-0.01z"/>
 </g>
</svg>
