<?xml version="1.0" encoding="UTF-8"?>
<!DOCTYPE svg PUBLIC "-//W3C//DTD SVG 1.1//EN" "http://www.w3.org/Graphics/SVG/1.1/DTD/svg11.dtd">
<!-- Creator: CorelDRAW 2020 (64 Bit) -->
<svg xmlns="http://www.w3.org/2000/svg" xml:space="preserve" width="24.7595mm" height="10.7949mm" version="1.1" style="shape-rendering:geometricPrecision; text-rendering:geometricPrecision; image-rendering:optimizeQuality; fill-rule:evenodd; clip-rule:evenodd"
viewBox="0 0 1438.81 627.31"
 xmlns:xlink="http://www.w3.org/1999/xlink"
 xmlns:xodm="http://www.corel.com/coreldraw/odm/2003">
 <defs>
  <style type="text/css">
   <![CDATA[
    .fil0 {fill:#B3131B}
    .fil1 {fill:#FEFEFE;fill-rule:nonzero}
   ]]>
  </style>
 </defs>
 <g id="Camada_x0020_1">
  <metadata id="CorelCorpID_0Corel-Layer"/>
  <g id="_2447414568176">
   <path class="fil0" d="M98.87 627.31l1114.59 0c55.75,0 110.1,-45.61 120.8,-101.36l104.57 -525.95 -105.15 0.38 -1114.59 0c-55.74,0 -110.1,45.62 -120.79,101.36l-98.29 525.24 98.87 0.33z"/>
   <path class="fil1" d="M282.75 410.89l-28.35 0 18.9 -104.04 -97.32 0 -18.9 104.04 -28.35 0 38.6 -212.46 28.35 0 -15.13 83.29 97.31 0 15.13 -83.29 28.35 0 -38.59 212.46zm62.41 0l-26.88 0 28.93 -159.27 26.89 0 -28.93 159.27zm35.86 -186.15l-30.68 0 5.04 -27.76 30.68 0 -5.04 27.76zm146.15 102.38c-4.81,26.5 -15.03,47.63 -30.6,63.36 -15.62,15.74 -33.18,23.62 -52.66,23.62 -7.89,0 -14.74,-0.92 -20.54,-2.73 -5.76,-1.8 -11.54,-4.58 -17.23,-8.38l-12.1 66.63 -26.89 0 39.61 -218.01 26.88 0 -3.03 16.71c7.76,-5.99 16.13,-11.01 24.99,-15.05 8.91,-4.04 18.19,-6.04 27.79,-6.04 18.36,0 31.32,7.21 38.97,21.67 7.65,14.46 9.24,33.85 4.82,58.2zm-28.28 2.88c3.3,-18.17 2.93,-32.25 -1.04,-42.28 -4.02,-10.04 -12.56,-15.05 -25.66,-15.05 -7.6,0 -15.31,1.7 -23.03,5.06 -7.72,3.36 -15.28,7.7 -22.63,13.05l-16.39 90.21c6.43,3.46 12.05,5.79 16.85,7.01 4.79,1.21 10.43,1.85 16.9,1.85 13.98,0 25.71,-5.06 35.3,-15.24 9.59,-10.18 16.14,-25.03 19.7,-44.61zm102.71 84.41c-25.43,0 -43.9,-7.16 -55.39,-21.43 -11.48,-14.27 -14.81,-34.58 -10.02,-60.88 4.71,-25.91 15.27,-46.51 31.69,-61.85 16.38,-15.35 35.59,-22.99 57.61,-22.99 9.94,0 18.45,1.41 25.53,4.28 7.13,2.82 12.99,7.3 17.58,13.39 4.64,6.09 7.68,13.49 9.1,22.31 1.48,8.76 1.03,19.53 -1.28,32.24l-2.64 14.56 -110.76 0c-3.35,18.46 -1.24,32.58 6.34,42.33 7.57,9.79 19.65,14.66 36.16,14.66 5.89,0 11.86,-0.69 17.75,-2 5.93,-1.31 11.37,-3.07 16.33,-5.16 5.26,-2.2 9.79,-4.29 13.47,-6.33 3.73,-2.05 6.86,-3.99 9.38,-5.79l1.56 0 -5.32 29.27c-3.39,1.21 -7.57,2.78 -12.58,4.63 -5.02,1.85 -9.47,3.31 -13.35,4.34 -5.51,1.41 -10.44,2.53 -14.82,3.31 -4.37,0.73 -9.85,1.12 -16.32,1.12zm49.88 -100.82c1.11,-7.21 1.37,-13.44 0.81,-18.65 -0.56,-5.21 -2,-9.65 -4.17,-13.25 -2.45,-3.95 -5.93,-7.01 -10.47,-9.11 -4.54,-2.09 -10.44,-3.11 -17.75,-3.11 -7.16,0 -13.44,1.07 -18.85,3.21 -5.41,2.14 -10.55,5.21 -15.38,9.3 -4.8,4.19 -8.66,8.82 -11.73,13.88 -3.01,5.07 -5.4,11.01 -7.21,17.73l84.75 0zm137.09 -33.02l-1.41 0c-1.9,-0.53 -3.99,-0.83 -6.16,-0.97 -2.21,-0.15 -4.88,-0.2 -8.05,-0.2 -7.21,0 -14.65,1.56 -22.38,4.68 -7.68,3.17 -15.25,7.79 -22.75,13.98l-20.5 112.85 -26.88 0 28.93 -159.27 26.89 0 -4.3 23.67c11.37,-8.67 21,-14.75 28.9,-18.31 7.9,-3.56 15.29,-5.36 22.16,-5.36 2.73,0 4.82,0.05 6.15,0.19 1.34,0.15 2.85,0.4 4.5,0.69l-5.1 28.05zm52.08 133.85c-10.96,0 -20.68,-1.71 -29.23,-5.07 -8.5,-3.36 -15.46,-8.47 -20.79,-15.34 -5.33,-6.82 -8.83,-15.44 -10.59,-25.87 -1.71,-10.42 -1.3,-22.65 1.27,-36.72 2.53,-13.98 6.63,-26.06 12.23,-36.24 5.6,-10.18 12.17,-18.7 19.72,-25.67 7.54,-6.92 16.35,-12.27 26.43,-16.03 10.04,-3.75 20.46,-5.65 31.22,-5.65 8.77,0 17.02,1.22 24.7,3.7 7.68,2.48 14.42,5.36 20.22,8.57l-5.47 30.1 -1.56 0c-1.6,-1.61 -3.75,-3.46 -6.39,-5.56 -2.6,-2.04 -5.86,-4.18 -9.75,-6.38 -3.36,-1.85 -7.45,-3.5 -12.26,-4.92 -4.81,-1.41 -9.55,-2.14 -14.23,-2.14 -13.88,0 -26.04,5.26 -36.37,15.73 -10.33,10.48 -17.25,25.28 -20.74,44.47 -3.41,18.75 -1.98,33.41 4.25,43.88 6.23,10.47 16.63,15.74 31.09,15.74 8.77,0 17.47,-1.81 26.02,-5.41 8.58,-3.56 16.4,-8.23 23.56,-13.88l1.56 0 -5.47 30.1c-2.91,1.27 -6.49,2.73 -10.8,4.48 -4.32,1.8 -8.21,3.07 -11.58,3.95 -4.82,1.31 -9.09,2.34 -12.83,3.07 -3.79,0.73 -8.52,1.08 -14.22,1.08zm161.81 -42.82l7.99 -43.98c-6.44,0.59 -14.62,1.37 -24.48,2.34 -9.92,0.98 -18.02,2.39 -24.29,4.19 -7.51,2.19 -14,5.5 -19.44,9.98 -5.44,4.48 -8.92,10.77 -10.38,18.8 -1.64,9.07 -0.31,15.93 3.96,20.55 4.27,4.63 11.3,6.97 21.14,6.97 8.48,0 16.4,-1.8 23.88,-5.46 7.47,-3.6 14.72,-8.08 21.62,-13.39zm-4.04 22.26c-2.49,1.66 -5.82,3.89 -10,6.82 -4.18,2.88 -8.11,5.21 -11.83,6.92 -5.22,2.49 -10.15,4.39 -14.82,5.7 -4.63,1.31 -10.94,1.99 -18.92,1.99 -6.58,0 -12.54,-1.21 -17.99,-3.7 -5.44,-2.48 -9.97,-5.94 -13.64,-10.42 -3.44,-4.38 -5.87,-9.79 -7.29,-16.22 -1.42,-6.38 -1.46,-13.15 -0.16,-20.31 2.01,-11.06 6.05,-20.41 12.09,-28.2 6.08,-7.75 14.55,-13.88 25.42,-18.46 9.66,-4.1 20.74,-6.92 33.15,-8.48 12.46,-1.56 25.77,-2.73 39.94,-3.5l0.95 -5.21c1.15,-6.33 1.1,-11.45 -0.09,-15.34 -1.19,-3.9 -3.27,-6.92 -6.3,-9.01 -3.05,-2.24 -6.93,-3.7 -11.76,-4.43 -4.79,-0.73 -9.84,-1.07 -15.05,-1.07 -6.18,0 -13.61,0.92 -22.33,2.82 -8.68,1.9 -17.56,4.68 -26.59,8.28l-1.56 0 4.95 -27.23c5.22,-1.41 12.57,-2.98 22.13,-4.68 9.57,-1.7 18.83,-2.58 27.89,-2.58 10.96,0 20,0.88 27.24,2.58 7.19,1.7 13.41,4.77 18.58,9.26 5,4.38 8.3,10.08 9.91,17 1.61,6.96 1.48,15.43 -0.33,25.42l-19.82 109.1 -26.88 0 3.09 -17.04zm163.22 -113.29l-1.41 0c-1.9,-0.53 -3.99,-0.83 -6.15,-0.97 -2.21,-0.15 -4.89,-0.2 -8.05,-0.2 -7.21,0 -14.65,1.56 -22.38,4.68 -7.69,3.17 -15.25,7.79 -22.76,13.98l-20.5 112.85 -26.89 0 28.93 -159.27 26.89 0 -4.31 23.67c11.37,-8.67 21,-14.75 28.9,-18.31 7.9,-3.56 15.29,-5.36 22.16,-5.36 2.73,0 4.81,0.05 6.15,0.19 1.34,0.15 2.85,0.4 4.5,0.69l-5.1 28.05zm112.43 130.34l-26.89 0 2.96 -16.32c-4.82,3.51 -9.01,6.43 -12.45,8.72 -3.48,2.29 -7.47,4.38 -11.9,6.28 -4.13,1.8 -8.38,3.21 -12.65,4.19 -4.28,1.02 -9.14,1.51 -14.6,1.51 -8.67,0 -16.38,-1.8 -23.13,-5.4 -6.75,-3.6 -12.06,-8.91 -15.97,-15.83 -3.99,-7.01 -6.46,-15.68 -7.46,-26 -0.99,-10.33 -0.26,-22.16 2.17,-35.56 2.55,-13.98 6.54,-26.06 12.05,-36.28 5.46,-10.23 12.09,-19.1 19.86,-26.74 7.1,-6.92 15.1,-12.37 24.1,-16.32 9,-3.95 17.97,-5.89 27.07,-5.89 7.99,0 14.8,0.87 20.42,2.63 5.57,1.75 11.36,4.48 17.25,8.23l12.59 -69.31 26.88 0 -40.34 222.1zm-19.83 -38.87l16.65 -91.67c-6.11,-3.12 -11.7,-5.31 -16.8,-6.48 -5.08,-1.21 -10.73,-1.8 -16.92,-1.8 -13.88,0 -25.63,5.16 -35.34,15.44 -9.71,10.27 -16.31,25.13 -19.83,44.57 -3.4,18.71 -2.97,32.97 1.21,42.91 4.24,9.88 12.99,14.85 26.23,14.85 7.07,0 14.47,-1.6 22.21,-4.82 7.75,-3.21 15.3,-7.55 22.58,-13.01z"/>
  </g>
 </g>
</svg>
