<?xml version="1.0" encoding="UTF-8"?>
<!DOCTYPE svg PUBLIC "-//W3C//DTD SVG 1.1//EN" "http://www.w3.org/Graphics/SVG/1.1/DTD/svg11.dtd">
<!-- Creator: CorelDRAW 2020 (64 Bit) -->
<svg xmlns="http://www.w3.org/2000/svg" xml:space="preserve" width="51.1289mm" height="47.0989mm" version="1.1" style="shape-rendering:geometricPrecision; text-rendering:geometricPrecision; image-rendering:optimizeQuality; fill-rule:evenodd; clip-rule:evenodd"
viewBox="0 0 3292.03 3032.55"
 xmlns:xlink="http://www.w3.org/1999/xlink"
 xmlns:xodm="http://www.corel.com/coreldraw/odm/2003">
 <defs>
  <style type="text/css">
   <![CDATA[
    .str0 {stroke:black;stroke-width:4.91;stroke-miterlimit:22.9256}
    .fil1 {fill:#ED3237}
    .fil2 {fill:black}
    .fil0 {fill:black;fill-rule:nonzero}
   ]]>
  </style>
 </defs>
 <g id="Camada_x0020_1">
  <metadata id="CorelCorpID_0Corel-Layer"/>
  <g id="_2460045988320">
   <path class="fil0" d="M291.02 2290.87l22.3 -111.11 255.04 0 -45.57 227.07c-55.53,33.31 -103.22,56.05 -143.05,68.11 -39.95,12.05 -85.64,18.02 -137.1,18.02 -63.38,0 -112.92,-10.82 -148.47,-32.44 -35.59,-21.51 -60.07,-53.69 -73.49,-96.44 -13.44,-42.63 -14.53,-91.73 -3.43,-147.03 11.7,-58.3 33.91,-108.88 66.55,-152 32.61,-43 74.35,-75.69 125.19,-98.06 39.63,-17.27 90.08,-25.85 151.23,-25.85 58.91,0 101.96,5.34 129.02,16.03 27.18,10.69 48.1,27.22 62.85,49.71 14.74,22.5 23.58,50.96 26.37,85.39l-164.57 28.58c-2.52,-20.26 -10.47,-35.79 -23.98,-46.48 -13.49,-10.81 -32.3,-16.16 -56.66,-16.16 -36.04,0 -67.39,12.56 -93.93,37.66 -26.54,25.11 -45.21,64.88 -56.11,119.19 -11.57,57.66 -9.04,98.93 7.75,123.66 16.66,24.73 44.5,37.16 83.27,37.16 18.4,0 36.44,-2.61 54.29,-7.96 17.73,-5.34 38.69,-14.42 62.86,-27.09l10.03 -49.96 -110.37 0zm293.31 193.13l107.15 -533.93 274.92 0c50.96,0 89.11,4.35 114.18,13.17 25.23,8.7 43.71,24.98 55.49,48.6 11.77,23.73 14.16,52.69 7.33,86.75 -5.94,29.58 -17.41,55.18 -34.41,76.68 -16.9,21.62 -37.78,39.02 -62.73,52.45 -15.74,8.45 -36.55,15.54 -62.15,21.13 18.31,6.59 31.31,13.05 38.93,19.64 5.1,4.35 12.03,13.79 20.71,28.09 8.57,14.29 14.05,25.36 16.33,33.18l49.21 154.24 -186.43 0 -55.44 -162.81c-6.95,-21.13 -14.15,-34.79 -21.58,-41.14 -10.28,-8.2 -23.01,-12.3 -38.05,-12.3l-14.54 0 -43.4 216.26 -165.54 0zm229.15 -316.92l69.72 0c7.46,0 22.62,-2.49 45.22,-7.33 11.36,-2.11 21.43,-7.71 30.09,-16.78 8.78,-9.07 14.33,-19.39 16.68,-31.07 3.47,-17.27 0.66,-30.57 -8.42,-39.77 -9.07,-9.32 -28.65,-13.93 -58.86,-13.93l-72.58 0 -21.85 108.88zm671.91 228.93l-186.92 0 -44.5 88 -168.4 0 308.12 -533.93 180.59 0 92.95 533.93 -172.76 0 -9.07 -88zm-11.72 -115.58l-19.79 -191.89 -97.04 191.89 116.83 0zm236.54 -330.35l172.38 0 43.18 384.29 195.69 -384.29 167.41 0 -305.38 533.93 -178.72 0 -94.56 -533.93zm805.71 445.93l-186.92 0 -44.5 88 -168.4 0 308.12 -533.93 180.59 0 92.95 533.93 -172.76 0 -9.07 -88zm-11.72 -115.58l-19.78 -191.89 -97.05 191.89 116.83 0zm224.97 203.58l107.15 -533.93 274.92 0c50.96,0 89.1,4.35 114.18,13.17 25.22,8.7 43.71,24.98 55.49,48.6 11.76,23.73 14.16,52.69 7.32,86.75 -5.94,29.58 -17.41,55.18 -34.4,76.68 -16.9,21.62 -37.79,39.02 -62.73,52.45 -15.74,8.45 -36.55,15.54 -62.15,21.13 18.31,6.59 31.3,13.05 38.93,19.64 5.09,4.35 12.02,13.79 20.71,28.09 8.56,14.29 14.05,25.36 16.33,33.18l49.21 154.24 -186.43 0 -55.44 -162.81c-6.95,-21.13 -14.15,-34.79 -21.57,-41.14 -10.29,-8.2 -23.02,-12.3 -38.05,-12.3l-14.54 0 -43.4 216.26 -165.55 0zm229.15 -316.92l69.72 0c7.46,0 22.63,-2.49 45.22,-7.33 11.36,-2.11 21.43,-7.71 30.09,-16.78 8.78,-9.07 14.33,-19.39 16.68,-31.07 3.46,-17.27 0.66,-30.57 -8.43,-39.77 -9.07,-9.32 -28.65,-13.93 -58.86,-13.93l-72.58 0 -21.85 108.88z"/>
   <polygon class="fil1" points="-0,2568 3236.6,2568 3236.6,2647.67 -0,2647.67 "/>
   <path class="fil0 str0" d="M333.9 2854.58c0,20.52 -6.25,38.98 -18.81,55.44 -12.57,16.51 -29.43,29.37 -50.58,38.57 -17.17,7.15 -34.65,11.94 -52.38,14.35 -17.72,2.41 -40.27,3.6 -67.83,3.6l-78.29 0 0 -224.32 77.35 0c31.93,0 56.98,1.6 75.17,4.73 18.18,3.19 33.64,7.51 46.44,13.06 21.94,9.51 38.87,22.21 50.89,38 12.02,15.84 18.03,34.71 18.03,56.56zm-47.3 -0.41c0,-17.22 -4.29,-31.93 -12.96,-44.07 -8.66,-12.19 -21.47,-21.65 -38.48,-28.44 -11.95,-4.84 -24.74,-8.28 -38.4,-10.39 -13.67,-2.11 -30.68,-3.14 -50.98,-3.14l-34.34 0 0 172.49 34.34 0c20.06,0 37.54,-1.03 52.53,-3.14 15.06,-2.11 28.72,-6.01 41.21,-11.72 15.62,-6.99 27.32,-16.35 35.21,-27.98 7.88,-11.67 11.86,-26.22 11.86,-43.61zm137.76 112.37l-43.08 0 0 -168.17 43.08 0 0 168.17zm3.28 -196.55l-49.18 0 0 -29.32 49.18 0 0 29.32zm213.32 150.99l0 -92.26c-10.69,-3.39 -20.6,-5.76 -29.73,-7.2 -9.06,-1.44 -18.19,-2.16 -27.16,-2.16 -21.94,0 -39.1,5.25 -51.68,15.79 -12.56,10.55 -18.81,25.61 -18.81,45.26 0,18.67 4.76,32.81 14.36,42.53 9.52,9.72 25.06,14.6 46.45,14.6 11.16,0 22.71,-1.44 34.58,-4.37 11.87,-2.88 22.48,-7 32,-12.19zm-145.26 72.4c2.97,0.77 7.26,1.85 12.88,3.14 5.7,1.34 12.1,2.58 19.35,3.75 7.96,1.24 15.3,2.27 22.02,3.03 6.79,0.77 14.12,1.18 22.08,1.18 13.35,0 24.58,-1.13 33.88,-3.44 9.28,-2.26 16.54,-5.45 21.69,-9.56 4.92,-4.06 8.35,-8.8 10.39,-14.15 1.95,-5.4 2.96,-11.52 2.96,-18.36l0 -14.65c-11.63,6.63 -23.02,11.52 -34.18,14.71 -11.16,3.14 -25.14,4.73 -41.99,4.73 -29.2,0 -52.46,-7.15 -69.78,-21.4 -17.26,-14.24 -25.92,-34.71 -25.92,-61.45 0,-13.94 2.97,-26.33 8.98,-37.08 5.94,-10.8 13.97,-19.95 24.04,-27.51 9.68,-7.2 21.07,-12.8 34.19,-16.71 13.19,-3.9 26.77,-5.86 40.9,-5.86 13.27,0 24.82,1.03 34.5,3.08 9.75,2.06 19.52,4.99 29.26,8.8l2.5 -7.26 40.59 0 0 148.98c0,28.49 -9.53,49.37 -28.49,62.74 -18.97,13.32 -48.01,20 -87.03,20 -12.57,0 -25.37,-0.67 -38.48,-1.96 -13.03,-1.29 -25.3,-3.08 -36.61,-5.24l0 -29.52 2.27 0zm294.51 -26.84l-43.08 0 0 -168.17 43.08 0 0 168.17zm3.28 -196.55l-49.17 0 0 -29.32 49.17 0 0 29.32zm137.61 199.94c-23.49,0 -41.83,-4.37 -54.95,-13.16 -13.12,-8.74 -19.67,-22.63 -19.67,-41.56l0 -93.08 -29.03 0 0 -23.77 29.03 0 0 -48.44 43.09 0 0 48.44 79.15 0 0 23.77 -79.15 0 0 79.92c0,8.53 0.24,15.11 0.7,19.69 0.48,4.63 2.2,8.95 5.23,12.96 2.58,3.5 6.79,6.17 12.57,7.92 5.85,1.75 13.66,2.62 23.57,2.62 7.02,0 13.82,-0.72 20.37,-2.11 6.56,-1.39 11.32,-2.52 14.21,-3.44l2.5 0 0 25.4c-8.12,1.55 -16.32,2.73 -24.59,3.55 -8.35,0.87 -16,1.28 -23.03,1.28zm221.61 -44.9l0 -46.44c-10.15,0.62 -23.03,1.44 -38.56,2.47 -15.61,1.02 -28.18,2.52 -37.7,4.42 -11.4,2.31 -20.85,5.81 -28.26,10.54 -7.42,4.73 -11.16,11.36 -11.16,19.85 0,9.56 4.14,16.82 12.34,21.7 8.2,4.89 20.13,7.35 35.91,7.35 13.58,0 25.75,-1.9 36.68,-5.76 10.93,-3.81 21.23,-8.54 30.76,-14.15zm0 23.51c-3.52,1.74 -8.2,4.11 -14.05,7.2 -5.86,3.03 -11.48,5.51 -16.94,7.3 -7.65,2.62 -14.99,4.62 -22.09,6.01 -7.02,1.39 -16.94,2.11 -29.74,2.11 -10.53,0 -20.45,-1.29 -29.89,-3.91 -9.45,-2.62 -17.72,-6.28 -24.9,-11 -6.79,-4.63 -12.25,-10.34 -16.39,-17.13 -4.13,-6.73 -6.16,-13.88 -6.16,-21.45 0,-11.67 3.74,-21.54 11.16,-29.77 7.49,-8.18 19.28,-14.66 35.36,-19.49 14.28,-4.32 31.21,-7.3 50.66,-8.95 19.51,-1.64 40.51,-2.88 62.99,-3.7l0 -5.5c0,-6.69 -1.56,-12.09 -4.61,-16.2 -3.04,-4.11 -7.25,-7.3 -12.72,-9.52 -5.54,-2.36 -12.18,-3.91 -20.15,-4.68 -7.88,-0.77 -16.07,-1.13 -24.42,-1.13 -9.92,0 -21.55,0.97 -34.97,2.98 -13.35,2 -26.78,4.94 -40.2,8.74l-2.5 0 0 -28.75c7.96,-1.49 19.28,-3.14 34.11,-4.94 14.83,-1.8 29.42,-2.72 43.94,-2.72 17.56,0 32.32,0.92 44.41,2.72 12.02,1.8 22.87,5.04 32.47,9.77 9.29,4.62 16.24,10.64 20.84,17.94 4.6,7.35 6.87,16.3 6.87,26.84l0 115.19 -43.09 0 0 -18zm147.92 18l-43.09 0 0 -234.5 43.09 0 0 234.5zm508.61 0l-58.54 0 -46.6 -32.09c-15.53,13.06 -31.54,22.42 -47.93,28.13 -16.39,5.71 -34.96,8.59 -55.73,8.59 -30.83,0 -56.28,-6.12 -76.34,-18.31 -20.06,-12.18 -30.06,-28.18 -30.06,-47.92 0,-8.64 1.87,-16.35 5.54,-23.04 3.67,-6.73 8.51,-12.8 14.6,-18.25 6.01,-5.2 12.88,-9.77 20.68,-13.78 7.8,-3.96 15.3,-7.35 22.48,-10.28 -15.46,-6.84 -26.93,-13.99 -34.58,-21.55 -7.57,-7.51 -11.39,-17.02 -11.39,-28.44 0,-7.15 2.18,-13.78 6.47,-19.85 4.38,-6.07 10.07,-11.42 17.02,-16.05 7.35,-4.68 16.79,-8.59 28.5,-11.57 11.62,-3.03 24.34,-4.53 38.24,-4.53 25.29,0 45.9,4.37 61.9,13.17 16,8.8 23.96,19.9 23.96,33.37 0,4.94 -0.93,10.03 -2.81,15.28 -1.94,5.29 -5.38,10.39 -10.38,15.32 -5,4.88 -11.55,9.51 -19.67,13.83 -8.12,4.32 -18.96,8.07 -32.47,11.31l80.4 54.51c2.18,-8.23 3.43,-17.22 3.9,-26.89 0.47,-9.72 0.7,-22.37 0.7,-37.95l44.5 0 0 14.45c0,9.67 -1.87,20.57 -5.62,32.66 -3.66,12.14 -9.83,23.6 -18.34,34.45l81.57 55.44zm-125.05 -45.35l-105.14 -70.97c-3.82,1.64 -7.57,3.55 -11.4,5.76 -3.74,2.21 -7.88,5.51 -12.49,9.92 -3.59,3.55 -6.79,8.13 -9.6,13.79 -2.81,5.71 -4.22,11.67 -4.22,18 0,14.3 6.4,25.97 19.28,35.13 12.88,9.1 30.21,13.68 52.14,13.68 14.6,0 27.79,-2.01 39.49,-6.07 11.71,-4.01 22.33,-10.44 31.93,-19.23zm-83.52 -92c8.43,-1.91 15.38,-4.47 20.92,-7.66 5.46,-3.24 9.76,-6.73 12.81,-10.54 2.65,-3.5 4.76,-7.2 6.08,-11.11 1.33,-3.91 2.02,-8.13 2.02,-12.65 0,-9.72 -4.29,-17.22 -12.87,-22.52 -8.51,-5.3 -18.5,-7.97 -29.89,-7.97 -13.43,0 -24.05,2.99 -31.77,9 -7.73,6.02 -11.63,13.52 -11.63,22.57 0,4.01 0.55,7.41 1.72,10.29 1.17,2.88 3.52,6.17 7.18,9.97 3.2,3.14 7.65,6.43 13.35,9.93 5.78,3.5 13.12,7.1 22.09,10.69zm615.47 -61.15c12.95,9.83 23.02,22.01 30.21,36.57 7.18,14.55 10.77,31.16 10.77,49.84 0,18.2 -3.51,34.6 -10.54,49.26 -7.02,14.65 -17.17,26.95 -30.44,36.93 -13.89,10.44 -30.13,18.1 -48.72,23.09 -18.49,4.99 -38.95,7.46 -61.19,7.46 -23.1,0 -43.86,-2.58 -62.29,-7.66 -18.5,-5.14 -34.43,-12.76 -47.69,-22.88 -13.12,-9.98 -23.19,-22.22 -30.21,-36.77 -7.02,-14.55 -10.54,-31.01 -10.54,-49.42 0,-18.88 3.52,-35.44 10.62,-49.68 7.11,-14.25 17.25,-26.48 30.36,-36.72 13.11,-9.97 28.96,-17.53 47.54,-22.68 18.58,-5.19 39.26,-7.77 62.21,-7.77 23.19,0 44.1,2.68 62.68,7.97 18.66,5.35 34.42,12.81 47.23,22.47zm-6.32 86.4c0,-14.82 -2.42,-27.93 -7.34,-39.34 -4.84,-11.47 -11.71,-20.93 -20.53,-28.44 -9.06,-7.72 -19.91,-13.48 -32.63,-17.33 -12.72,-3.86 -27,-5.81 -42.86,-5.81 -16.47,0 -30.91,1.91 -43.16,5.66 -12.26,3.75 -23.11,9.57 -32.63,17.49 -8.98,7.61 -15.85,17.17 -20.69,28.69 -4.76,11.57 -7.18,24.58 -7.18,39.09 0,29.36 9.37,51.83 28.1,67.41 18.81,15.58 43.94,23.4 75.55,23.4 31.54,0 56.67,-7.82 75.33,-23.4 18.65,-15.58 28.03,-38.05 28.03,-67.41zm365.77 -95.34l-2.34 0c-3.74,-0.88 -9.28,-1.75 -16.46,-2.63 -7.1,-0.87 -13.51,-1.28 -19.21,-1.28 -18.11,0 -31.07,2.72 -38.72,8.13 -7.73,5.4 -11.55,15.16 -11.55,29.31l0 5.76 71.11 0 0 23.77 -69.78 0 0 144.4 -42.93 0 0 -144.4 -95.16 0 0 144.4 -43 0 0 -144.4 -29.04 0 0 -23.77 29.04 0 0 -5.6c0,-20.37 7.41,-35.84 22.16,-46.38 14.83,-10.6 35.99,-15.89 63.61,-15.89 7.89,0 15.69,0.26 23.34,0.82 7.57,0.57 14.53,1.18 20.76,1.9l0 25.87 -2.26 0c-3.83,-0.88 -9.29,-1.75 -16.48,-2.63 -7.18,-0.87 -13.57,-1.28 -19.19,-1.28 -18.19,0 -31.07,2.72 -38.79,8.13 -7.65,5.4 -11.56,15.16 -11.56,29.31l0 5.76 96.56 0 0 -5.6c0,-20.37 7.33,-35.84 22.16,-46.38 14.75,-10.6 35.99,-15.89 63.54,-15.89 7.96,0 15.68,0.26 23.34,0.82 7.65,0.57 14.59,1.18 20.84,1.9l0 25.87zm83.68 211.15c-17.02,0 -32.94,-1.49 -47.77,-4.53 -14.91,-3.03 -27.16,-6.22 -36.92,-9.67l0 -31.77 2.25 0c3.67,1.9 7.97,4.06 12.88,6.37 4.92,2.37 11.47,4.78 19.68,7.3 7.25,2.27 15.21,4.22 23.96,5.97 8.74,1.69 17.8,2.57 27.16,2.57 6.79,0 14.05,-0.52 21.78,-1.6 7.73,-1.02 13.5,-2.36 17.33,-4 5.31,-2.32 9.14,-4.78 11.47,-7.4 2.34,-2.63 3.52,-6.59 3.52,-11.83 0,-6.73 -2.73,-11.83 -8.2,-15.27 -5.47,-3.39 -15.22,-6.27 -29.12,-8.59 -5.46,-0.93 -12.65,-1.95 -21.54,-3.08 -8.82,-1.18 -17.02,-2.47 -24.51,-3.86 -19.44,-3.7 -33.64,-9.46 -42.47,-17.22 -8.81,-7.77 -13.27,-17.18 -13.27,-28.23 0,-15.12 8.67,-27.46 26.08,-37.03 17.4,-9.52 40.43,-14.29 69.24,-14.29 14.2,0 28.49,1.18 42.77,3.5 14.36,2.31 26.39,5.2 36.14,8.74l0 30.34 -2.26 0c-10.93,-5.81 -23.11,-10.39 -36.53,-13.79 -13.42,-3.34 -27,-5.04 -40.67,-5.04 -14.05,0 -25.99,1.95 -35.67,5.91 -9.75,3.91 -14.6,9.83 -14.6,17.8 0,7.04 2.89,12.28 8.58,15.79 5.7,3.44 14.83,6.27 27.4,8.53 6.4,1.08 13.51,2.16 21.39,3.19 7.81,1.08 16.08,2.31 24.82,3.7 18.9,3.14 33.1,8.28 42.62,15.48 9.53,7.25 14.29,17.08 14.29,29.52 0,7.2 -2.18,14.09 -6.48,20.51 -4.37,6.48 -10.69,12.03 -19.12,16.66 -9.14,4.99 -19.44,8.8 -30.91,11.42 -11.47,2.62 -25.92,3.91 -43.32,3.91zm250.79 0c-40.74,0 -72.44,-7.56 -94.99,-22.63 -22.55,-15.07 -33.8,-36.51 -33.8,-64.28 0,-27.36 10.93,-49.11 32.79,-65.31 21.78,-16.2 50.35,-24.27 85.62,-24.27 15.93,0 29.98,1.49 42.15,4.53 12.26,2.98 22.95,7.71 32.08,14.14 9.21,6.43 16.23,14.25 21.07,23.55 4.92,9.26 7.34,20.62 7.34,34.04l0 15.38 -177.5 0c0,19.49 7.49,34.4 22.48,44.68 14.99,10.34 35.75,15.49 62.21,15.49 9.45,0 18.81,-0.73 27.87,-2.11 9.14,-1.39 17.33,-3.24 24.67,-5.45 7.8,-2.31 14.44,-4.52 19.75,-6.68 5.39,-2.16 9.84,-4.22 13.35,-6.12l2.5 0 0 30.9c-5.07,1.29 -11.32,2.94 -18.82,4.89 -7.49,1.96 -14.2,3.5 -20.13,4.58 -8.43,1.49 -16,2.68 -22.79,3.5 -6.79,0.77 -15.45,1.18 -25.84,1.18zm50.58 -106.45c-0.31,-7.61 -1.72,-14.19 -4.14,-19.7 -2.41,-5.51 -6.01,-10.18 -10.53,-13.98 -5.07,-4.17 -11.55,-7.41 -19.43,-9.62 -7.89,-2.21 -17.65,-3.29 -29.35,-3.29 -11.48,0 -21.23,1.13 -29.27,3.39 -8.04,2.26 -15.38,5.5 -21.94,9.83 -6.47,4.42 -11.31,9.3 -14.75,14.65 -3.35,5.34 -5.47,11.62 -6.4,18.72l135.82 0zm162.35 106.14c-23.49,0 -41.83,-4.37 -54.95,-13.16 -13.12,-8.74 -19.67,-22.63 -19.67,-41.56l0 -93.08 -29.03 0 0 -23.77 29.03 0 0 -48.44 43.09 0 0 48.44 79.15 0 0 23.77 -79.15 0 0 79.92c0,8.53 0.24,15.11 0.7,19.69 0.47,4.63 2.19,8.95 5.23,12.96 2.58,3.5 6.79,6.17 12.56,7.92 5.85,1.75 13.66,2.62 23.57,2.62 7.02,0 13.82,-0.72 20.37,-2.11 6.56,-1.39 11.32,-2.52 14.21,-3.44l2.5 0 0 25.4c-8.12,1.55 -16.32,2.73 -24.59,3.55 -8.35,0.87 -16,1.28 -23.03,1.28z"/>
   <path class="fil2" d="M1633.62 1747.89c482.66,0 873.95,-391.28 873.94,-873.94 0,-277.22 -129.1,-524.28 -330.44,-684.37l-254.68 471.45 172.92 110.76 112.79 -211.25c0.03,-0.05 0.06,0.12 0.08,0.15 50.82,93.02 79.73,199.77 79.72,313.25 0.01,361.39 -292.97,654.36 -654.35,654.36 -361.39,0 -654.36,-292.97 -654.36,-654.36 0.01,-361.39 292.97,-654.36 654.36,-654.36 42.97,0 84.96,4.19 125.62,12.1l108.57 -199.9c-74.54,-20.68 -153.06,-31.79 -234.19,-31.79 -482.67,0.01 -873.95,391.28 -873.95,873.94 0.01,482.67 391.28,873.95 873.95,873.95zm270.16 -1052.3l-191.25 354.05 -391.8 -638.58c0,0 -52.73,38.81 -91.33,89.83 -35.3,46.65 -67.73,104.73 -67.73,104.73l548.99 886.7 366.2 -685.86 -173.08 -110.87z"/>
  </g>
 </g>
</svg>
