<?xml version="1.0" encoding="UTF-8"?>
<!DOCTYPE svg PUBLIC "-//W3C//DTD SVG 1.1//EN" "http://www.w3.org/Graphics/SVG/1.1/DTD/svg11.dtd">
<!-- Creator: CorelDRAW 2020 (64 Bit) -->
<svg xmlns="http://www.w3.org/2000/svg" xml:space="preserve" width="8.5834mm" height="8.5122mm" version="1.1" style="shape-rendering:geometricPrecision; text-rendering:geometricPrecision; image-rendering:optimizeQuality; fill-rule:evenodd; clip-rule:evenodd"
viewBox="0 0 58.37 57.89"
 xmlns:xlink="http://www.w3.org/1999/xlink"
 xmlns:xodm="http://www.corel.com/coreldraw/odm/2003">
 <defs>
  <style type="text/css">
   <![CDATA[
    .fil0 {fill:black}
   ]]>
  </style>
 </defs>
 <g id="Camada_x0020_1">
  <metadata id="CorelCorpID_0Corel-Layer"/>
  <path class="fil0" d="M22.67 0c12.52,0 22.66,10.15 22.66,22.67 0,4.91 -1.56,9.45 -4.21,13.16 1.06,0.08 2.1,0.53 2.92,1.33l12.92 12.67c1.85,1.81 1.88,4.81 0.07,6.66l-0 0c-1.81,1.85 -4.81,1.88 -6.66,0.06l-12.92 -12.67c-0.82,-0.81 -1.29,-1.85 -1.39,-2.93 -3.75,2.75 -8.38,4.38 -13.39,4.38 -12.52,0 -22.67,-10.15 -22.67,-22.66 0,-12.52 10.15,-22.67 22.67,-22.67zm0 5.79c9.32,0 16.88,7.56 16.88,16.88 0,9.32 -7.56,16.88 -16.88,16.88 -9.32,0 -16.88,-7.56 -16.88,-16.88 0,-9.32 7.56,-16.88 16.88,-16.88z"/>
 </g>
</svg>
