<?xml version="1.0" encoding="UTF-8"?>
<!DOCTYPE svg PUBLIC "-//W3C//DTD SVG 1.1//EN" "http://www.w3.org/Graphics/SVG/1.1/DTD/svg11.dtd">
<!-- Creator: CorelDRAW 2020 (64 Bit) -->
<svg xmlns="http://www.w3.org/2000/svg" xml:space="preserve" width="18.7852mm" height="14.7315mm" version="1.1" style="shape-rendering:geometricPrecision; text-rendering:geometricPrecision; image-rendering:optimizeQuality; fill-rule:evenodd; clip-rule:evenodd"
viewBox="0 0 2739.06 2147.99"
 xmlns:xlink="http://www.w3.org/1999/xlink"
 xmlns:xodm="http://www.corel.com/coreldraw/odm/2003">
 <defs>
  <style type="text/css">
   <![CDATA[
    .fil0 {fill:#EA001B}
    .fil1 {fill:#F79F1A}
    .fil2 {fill:#373435;fill-rule:nonzero}
   ]]>
  </style>
 </defs>
 <g id="Camada_x0020_1">
  <metadata id="CorelCorpID_0Corel-Layer"/>
  <g id="_2447551267040">
   <circle class="fil0" cx="836.54" cy="836.53" r="836.54"/>
   <circle class="fil1" cx="1875.03" cy="836.53" r="836.54"/>
   <path class="fil2" d="M200.74 2138.6l-52.42 0 0 -228.98 49.28 0 0 37.59c10.47,-16 22.34,-27.7 35.61,-35.04 13.27,-7.33 28.93,-10.96 46.98,-10.96 17.89,0 32.72,3.72 44.43,11.21 11.8,7.51 20.69,18.96 26.79,34.29 12.12,-15.83 24.98,-27.37 38.58,-34.62 13.6,-7.26 29.09,-10.89 46.48,-10.89 15.08,0 28.27,2.81 39.57,8.33 11.29,5.61 20.02,13.69 26.29,24.32 2.96,4.94 5.1,10.96 6.43,17.88 1.4,6.93 2.06,16.83 2.06,29.69l0 18.37 0 138.81 -52.42 0 0 -117.54c0,-30.75 -3.3,-51.03 -9.81,-60.76 -6.52,-9.73 -18.12,-14.58 -34.86,-14.58 -20.6,0 -35.27,6.59 -44.02,19.7 -8.82,13.11 -13.18,36.1 -13.18,68.91l0 104.27 -52.91 0 0 -117.54c0,-28.36 -3.38,-47.97 -10.22,-58.94 -6.84,-10.96 -18.71,-16.4 -35.45,-16.4 -10.29,0 -19.7,2.3 -28.18,7 -8.57,4.71 -15.34,11.13 -20.37,19.29 -3.21,5.37 -5.44,11.87 -6.75,19.54 -1.24,7.74 -1.9,22 -1.9,42.78l0 104.27zm595.92 0l-52.42 0 0 -29.6c-9.32,13.11 -20.28,22.92 -32.72,29.34 -12.53,6.43 -26.79,9.65 -42.94,9.65 -32.31,0 -57.87,-11.05 -76.42,-33.22 -18.62,-22.09 -27.94,-52.42 -27.94,-90.91 0,-36.51 9.48,-66.02 28.52,-88.45 19.04,-22.5 43.84,-33.71 74.44,-33.71 18.71,0 34.69,3.88 47.97,11.71 13.25,7.74 22.99,18.96 29.09,33.55l0 -37.34 52.42 0 0 228.98zm-50.93 -115.23c0,-23.66 -5.53,-42.12 -16.58,-55.31 -11.04,-13.27 -26.45,-19.87 -46.24,-19.87 -19.86,0 -35.45,6.85 -46.73,20.44 -11.37,13.6 -17.06,32.56 -17.06,56.71 0,24.32 5.44,43.12 16.4,56.3 10.96,13.27 26.45,19.87 46.4,19.87 18.88,0 34.21,-7.17 46,-21.52 11.87,-14.33 17.8,-33.22 17.8,-56.62zm96.92 73.69l43.52 -23.75c3.22,11.46 9.16,20.19 17.89,26.13 8.66,6.02 19.86,9 33.46,9 11.78,0 21.01,-2.73 27.69,-8.08 6.68,-5.45 9.97,-12.77 9.97,-22.18 0,-12.36 -11.87,-22.99 -35.68,-31.9 -8,-2.87 -14.26,-5.26 -18.55,-7.25 -24.48,-10.13 -41.63,-20.44 -51.35,-30.91 -9.73,-10.38 -14.58,-23.15 -14.58,-38.09 0,-20.43 7.99,-37.01 23.99,-49.78 16.07,-12.69 37.24,-19.04 63.62,-19.04 17.73,0 32.89,3.3 45.51,9.81 12.61,6.52 21.84,15.75 27.6,27.86l-37.17 25.63c-2.71,-7.26 -7.49,-13.04 -14.35,-17.31 -6.84,-4.29 -14.74,-6.43 -23.74,-6.43 -9.97,0 -17.96,2.39 -23.99,7.09 -6.01,4.78 -9.05,11.13 -9.05,19.04 0,11.87 13.52,22.75 40.46,32.56 8.57,3.05 15.16,5.6 19.79,7.49 21.1,8.41 36.18,17.8 45.33,28.36 9.07,10.54 13.6,23.72 13.6,39.47 0,22.92 -8.33,40.8 -24.89,53.75 -16.58,12.93 -39.4,19.45 -68.59,19.45 -22.34,0 -40.96,-4.2 -55.71,-12.53 -14.84,-8.41 -26.38,-21.19 -34.79,-38.41zm249.17 41.54l0 -182.99 -40.05 0 0 -45.99 40.05 0 0 -86.54 52.42 0 0 86.54 40.07 0 0 45.99 -40.07 0 0 182.99 -52.42 0zm358.12 -106.83l-182.98 0c1.33,21.43 7.67,38.17 19.12,50.2 11.39,12.03 26.62,18.05 45.67,18.05 16.9,0 31,-3.54 42.21,-10.63 11.29,-7.09 21.08,-18.55 29.5,-34.38l44.02 24.66c-12.86,23.08 -28.77,40.14 -47.81,51.43 -18.96,11.29 -41.29,16.9 -66.84,16.9 -36.76,0 -65.95,-11.21 -87.7,-33.55 -21.68,-22.41 -32.56,-52.26 -32.56,-89.59 0,-35.94 11.21,-65.37 33.71,-88.54 22.43,-23.07 51.27,-34.62 86.55,-34.62 36.85,0 65.6,10.56 86.2,31.66 20.62,21.01 30.91,50.61 30.91,88.52l0 9.89zm-54.39 -35.11c-2.07,-16.4 -8.33,-28.93 -18.79,-37.5 -10.47,-8.65 -24.82,-12.93 -42.94,-12.93 -17.23,0 -31.09,4.2 -41.54,12.53 -10.4,8.41 -17.73,21.01 -21.93,37.91l125.21 0zm161.29 -50.44c5.69,-15.16 13.11,-26.38 22.34,-33.64 9.32,-7.25 20.76,-10.88 34.53,-10.88 7.42,0 14.68,0.9 21.84,2.64 7.17,1.74 14.26,4.37 21.19,7.67l-18.87 44.59c-4.53,-3.21 -9.4,-5.6 -14.6,-7.09 -5.28,-1.56 -11.13,-2.3 -17.56,-2.3 -17.47,0 -29.92,6.91 -37.5,20.85 -7.58,13.92 -11.37,37.33 -11.37,70.13l0 100.4 -52.42 0 0 -229.47 52.42 0 0 37.09zm300.76 28.68c-8.08,-8.82 -17.38,-15.57 -28.1,-20.19 -10.72,-4.7 -22.27,-7.01 -34.7,-7.01 -21.35,0 -38.49,6.93 -51.44,20.78 -12.85,13.85 -19.28,32.15 -19.28,55.06 0,23.83 6.5,42.53 19.45,56.14 12.93,13.59 30.82,20.35 53.73,20.35 12.7,0 24.07,-2.39 34.05,-7.09 9.97,-4.78 18.71,-11.96 26.29,-21.59l0 60.34c-9.64,5.44 -20.02,9.48 -31.07,12.19 -10.96,2.73 -22.75,4.13 -35.11,4.13 -35.94,0 -65.19,-11.46 -87.78,-34.29 -22.67,-22.82 -33.96,-52.49 -33.96,-88.84 0,-36.85 11.71,-66.61 35.11,-89.19 23.49,-22.66 54.07,-33.96 91.98,-33.96 11.87,0 22.83,1.15 32.81,3.54 9.97,2.32 19.38,5.93 28.02,10.8l0 58.85zm269.12 163.7l-52.42 0 0 -29.6c-9.32,13.11 -20.28,22.92 -32.72,29.34 -12.54,6.43 -26.8,9.65 -42.96,9.65 -32.31,0 -57.86,-11.05 -76.4,-33.22 -18.62,-22.09 -27.94,-52.42 -27.94,-90.91 0,-36.51 9.48,-66.02 28.52,-88.45 19.03,-22.5 43.84,-33.71 74.42,-33.71 18.71,0 34.7,3.88 47.97,11.71 13.27,7.74 22.99,18.96 29.1,33.55l0 -37.34 52.42 0 0 228.98zm-50.95 -115.23c0,-23.66 -5.51,-42.12 -16.56,-55.31 -11.04,-13.27 -26.45,-19.87 -46.24,-19.87 -19.87,0 -35.45,6.85 -46.73,20.44 -11.37,13.6 -17.06,32.56 -17.06,56.71 0,24.32 5.44,43.12 16.39,56.3 10.96,13.27 26.46,19.87 46.41,19.87 18.88,0 34.21,-7.17 45.99,-21.52 11.87,-14.33 17.8,-33.22 17.8,-56.62zm175.57 -77.15c5.69,-15.16 13.11,-26.38 22.34,-33.64 9.32,-7.25 20.76,-10.88 34.53,-10.88 7.42,0 14.68,0.9 21.84,2.64 7.17,1.74 14.26,4.37 21.19,7.67l-18.87 44.59c-4.53,-3.21 -9.4,-5.6 -14.6,-7.09 -5.28,-1.56 -11.13,-2.3 -17.56,-2.3 -17.47,0 -29.92,6.91 -37.5,20.85 -7.58,13.92 -11.37,37.33 -11.37,70.13l0 100.4 -52.42 0 0 -229.47 52.42 0 0 37.09zm294.33 77.15c0,-23.66 -5.51,-42.12 -16.56,-55.31 -11.04,-13.27 -26.45,-19.87 -46.24,-19.87 -19.87,0 -35.45,6.85 -46.73,20.44 -11.37,13.6 -17.07,32.56 -17.07,56.71 0,24.32 5.44,43.12 16.4,56.3 10.96,13.27 26.46,19.87 46.41,19.87 18.96,0 34.37,-7.17 46.16,-21.43 11.69,-14.26 17.63,-33.14 17.63,-56.71zm-1.47 -259.15l52.42 0 0 374.38 -52.42 0 0 -29.6c-9.32,13.11 -20.28,22.92 -32.73,29.34 -12.53,6.43 -26.79,9.65 -42.94,9.65 -32.31,0 -57.86,-11.05 -76.4,-33.22 -18.62,-22.09 -27.94,-52.42 -27.94,-90.91 0,-36.51 9.48,-66.02 28.52,-88.45 19.03,-22.5 43.84,-33.71 74.42,-33.71 18.71,0 34.7,3.88 47.97,11.71 13.27,7.74 22.99,18.96 29.1,33.55l0 -182.74zm131.53 347.67c0,-8.91 3.06,-16.4 9.16,-22.75 6.18,-6.27 13.68,-9.4 22.5,-9.4 8.91,0 16.32,3.13 22.5,9.4 6.11,6.34 9.16,13.84 9.16,22.75 0,8.66 -3.05,16.07 -9.16,22.09 -6.18,6.02 -13.59,9.07 -22.5,9.07 -8.82,0 -16.32,-3.05 -22.5,-9.07 -6.09,-6.02 -9.16,-13.43 -9.16,-22.09z"/>
  </g>
 </g>
</svg>
