<?xml version="1.0" encoding="UTF-8"?>
<!DOCTYPE svg PUBLIC "-//W3C//DTD SVG 1.1//EN" "http://www.w3.org/Graphics/SVG/1.1/DTD/svg11.dtd">
<!-- Creator: CorelDRAW 2020 (64 Bit) -->
<svg xmlns="http://www.w3.org/2000/svg" xml:space="preserve" width="13.865mm" height="9.8104mm" version="1.1" style="shape-rendering:geometricPrecision; text-rendering:geometricPrecision; image-rendering:optimizeQuality; fill-rule:evenodd; clip-rule:evenodd"
viewBox="0 0 153.97 108.94"
 xmlns:xlink="http://www.w3.org/1999/xlink"
 xmlns:xodm="http://www.corel.com/coreldraw/odm/2003">
 <defs>
  <style type="text/css">
   <![CDATA[
    .fil0 {fill:black}
   ]]>
  </style>
 </defs>
 <g id="Camada_x0020_1">
  <metadata id="CorelCorpID_0Corel-Layer"/>
  <path class="fil0" d="M9.35 0l135.28 0c5.14,0 9.35,4.21 9.35,9.35l0 0c0,5.14 -4.2,9.35 -9.35,9.35l-135.28 0c-5.14,0 -9.35,-4.21 -9.35,-9.35l0 0c0,-5.14 4.2,-9.35 9.35,-9.35zm0 45.12l135.28 0c5.14,0 9.35,4.21 9.35,9.35l0 0c0,5.14 -4.2,9.35 -9.35,9.35l-135.28 0c-5.14,0 -9.35,-4.21 -9.35,-9.35l0 0c0,-5.14 4.2,-9.35 9.35,-9.35zm0 45.12l135.28 0c5.14,0 9.35,4.21 9.35,9.35l0 0c0,5.14 -4.2,9.35 -9.35,9.35l-135.28 0c-5.14,0 -9.35,-4.21 -9.35,-9.35l0 0c0,-5.14 4.2,-9.35 9.35,-9.35z"/>
 </g>
</svg>
