<?xml version="1.0" encoding="UTF-8"?>
<!DOCTYPE svg PUBLIC "-//W3C//DTD SVG 1.1//EN" "http://www.w3.org/Graphics/SVG/1.1/DTD/svg11.dtd">
<!-- Creator: CorelDRAW 2020 (64 Bit) -->
<svg xmlns="http://www.w3.org/2000/svg" xml:space="preserve" width="49.9028mm" height="17.7028mm" version="1.1" style="shape-rendering:geometricPrecision; text-rendering:geometricPrecision; image-rendering:optimizeQuality; fill-rule:evenodd; clip-rule:evenodd"
viewBox="0 0 1940.73 688.47"
 xmlns:xlink="http://www.w3.org/1999/xlink"
 xmlns:xodm="http://www.corel.com/coreldraw/odm/2003">
 <defs>
  <style type="text/css">
   <![CDATA[
    .str0 {stroke:#939598;stroke-width:2.96;stroke-miterlimit:22.9256}
    .fil1 {fill:#32BCAD}
    .fil0 {fill:#939598}
    .fil2 {fill:#939598;fill-rule:nonzero}
   ]]>
  </style>
 </defs>
 <g id="Camada_x0020_1">
  <metadata id="CorelCorpID_0Corel-Layer"/>
  <g id="_2447546218320">
   <path class="fil0 str0" d="M1326.38 169.95l0 295.51c0,6.55 -5.35,11.9 -11.89,11.9l0 0c-6.54,0 -11.89,-5.35 -11.89,-11.9l0 -295.51c0,-20.87 -17.52,-41.44 -34.9,-41.44l-58.8 0c-6.55,0 -11.9,-5.35 -11.9,-11.89l0 0c0,-6.54 5.35,-11.89 11.9,-11.89l60.65 0c31.84,0 56.84,33.82 56.84,65.22z"/>
   <path class="fil0" d="M786.95 232.22l0 410.33c0,6.55 5.35,11.9 11.89,11.9l0 0c6.54,0 11.89,-5.35 11.89,-11.9l0 -404.71c0,-50.28 53.84,-109.33 114.91,-109.33l31.05 0 14.35 0 79.91 0c61.07,0 114.91,59.05 114.91,109.33l0 5.27 0 48.29 0 45.97c0,61.07 -59.05,114.91 -109.33,114.91l-174.75 0c-6.55,0 -11.9,5.35 -11.9,11.89l0 0c0,6.54 5.36,11.89 11.9,11.89l180.38 0c52.75,0 127.49,-60.86 127.49,-139.87l0 -44.79 0 -48.29 0 -10.89c0,-52.75 -60.86,-127.49 -139.87,-127.49l-78.74 0 -14.35 0 -29.87 0c-79.01,0 -139.87,74.74 -139.87,127.49z"/>
   <path class="fil0" d="M1940.73 116.15l0 0c0.03,-6.54 -5.3,-11.91 -11.85,-11.94l-49.25 -0.24c-21.61,0.1 -48.87,12.91 -64.97,29.28l-120.84 120.85c-12.93,12.93 -31.04,5.92 -37.15,-0.19l-120.84 -120.84c-16.1,-16.37 -43.36,-29.18 -64.97,-29.28l-59.15 0.24c-6.55,0.03 -11.87,5.4 -11.85,11.94l0 0c0.02,6.54 5.39,11.87 11.94,11.84l58.14 -0.23c14.71,-0.46 37.54,10.78 49.07,22.3l121.26 121.23c14.1,14.1 48.17,22 70.37,-0.2l120.85 -120.84c11.53,-11.53 34.36,-22.76 49.07,-22.31l48.23 0.23c6.55,0.03 11.92,-5.3 11.94,-11.84z"/>
   <path class="fil0" d="M1940.73 462.1l0 0c0.03,6.54 -5.3,11.91 -11.85,11.94l-49.25 0.24c-21.61,-0.1 -48.87,-12.91 -64.97,-29.28l-120.84 -120.85c-12.93,-12.93 -31.04,-5.92 -37.15,0.19l-120.84 120.84c-16.1,16.37 -43.36,29.18 -64.97,29.28l-59.15 -0.24c-6.55,-0.03 -11.87,-5.4 -11.85,-11.94l0 0c0.02,-6.54 5.39,-11.87 11.94,-11.84l58.14 0.23c14.71,0.46 37.54,-10.78 49.07,-22.31l121.26 -121.22c14.1,-14.11 48.17,-22 70.37,0.2l120.85 120.84c11.53,11.53 34.36,22.76 49.07,22.31l48.23 -0.24c6.55,-0.03 11.92,5.3 11.94,11.85z"/>
   <path class="fil1" d="M25.99 306.48l81.57 -81.57 37.62 -0.11c14.7,-0.45 30.35,2.54 41.88,14.07l74.63 74.6 -0 0 26.66 26.66c0.2,0.19 0.4,0.39 0.6,0.58l0.02 0.02c0.14,0.14 0.29,0.28 0.44,0.43 0.64,0.62 1.32,1.23 2.03,1.81 9.7,8.2 21.11,11.36 31.99,11.19 10.88,0.17 22.28,-2.99 31.99,-11.19 0.71,-0.59 1.39,-1.19 2.03,-1.81l0.44 -0.43 0.02 -0.02c0.2,-0.19 0.4,-0.38 0.6,-0.58l26.66 -26.66 -0 0 74.63 -74.6c11.53,-11.53 27.17,-14.52 41.88,-14.07l28.72 0.08 81.59 81.59c34.66,34.66 34.66,91.37 0,126.03l-78.07 78.07 -32.24 0.09c-14.71,0.46 -30.35,-2.54 -41.88,-14.07l-74.63 -74.6 0 0 -26.66 -26.66c-0.2,-0.19 -0.4,-0.39 -0.6,-0.58l-0.02 -0.02 -0.44 -0.42c-0.64,-0.62 -1.32,-1.23 -2.03,-1.81 -9.7,-8.2 -21.11,-11.36 -31.99,-11.19 -10.88,-0.18 -22.29,2.98 -31.99,11.19 -0.72,0.59 -1.39,1.19 -2.03,1.81 -0.15,0.14 -0.3,0.28 -0.44,0.42l-0.02 0.02c-0.2,0.19 -0.4,0.39 -0.6,0.58l-26.66 26.66 0 0 -74.63 74.6c-11.53,11.53 -27.17,14.52 -41.88,14.07l-41.14 -0.11 -78.04 -78.05c-34.66,-34.66 -34.66,-91.37 0,-126.03zm481.36 230.63l-125.36 125.36c-34.66,34.66 -91.37,34.66 -126.03,0l-125.39 -125.39 15.31 0.04c21.61,-0.1 47.52,-3.61 64.42,-20.79l95.04 -95.05c7.73,-7.73 12.6,-12.36 18.06,-12.44 5.46,0.08 10.33,4.71 18.06,12.44l94.07 94.08c16.28,16.28 43.78,21.67 65.39,21.76l6.42 -0.02zm-151.95 -144.61c0.68,0.58 1.37,1.18 2.03,1.81l-2.03 -1.81zm-221.3 -194.12l121.87 -121.87c34.66,-34.66 91.37,-34.66 126.03,0l121.84 121.84 -2.89 -0.01c-21.61,0.1 -49.12,5.48 -65.39,21.76l-94.07 94.07c-7.73,7.73 -12.6,12.36 -18.06,12.44 -5.46,-0.09 -10.33,-4.71 -18.06,-12.44l-95.04 -95.05c-16.91,-17.18 -42.81,-20.69 -64.42,-20.79l-11.79 0.03zm221.3 144.59c0.68,-0.58 1.37,-1.18 2.03,-1.81l-2.03 1.81z"/>
   <rect class="fil1" transform="matrix(0.198169 -0.198169 0.198169 0.198169 1271.35 38.6314)" width="216.09" height="216.09" rx="36.04" ry="36.04"/>
   <g>
    <path class="fil2" d="M917.2 623.88c0,11.06 -7.53,17.98 -21.16,17.98 -4.68,0 -10.36,-0.6 -14.58,-2.87l0 13.49 -3.99 0 0 -47.08 3.29 0 0.3 2.44c4.76,-2.73 13.3,-3.39 18.29,-3.39 4.09,0 8.89,0.96 12.03,3.77 4.6,4.11 5.81,9.75 5.81,15.66zm-4.76 -2.28c0,-4.99 -2.77,-13.21 -13.51,-13.21 -5.49,0 -12.66,0.75 -17.42,3.19l0 22.45c2.36,2.03 10.55,3.66 15.02,3.66 13.2,0 15.91,-7.41 15.91,-16.09z"/>
    <polygon class="fil2" points="1031.64,605.4 1036.36,605.4 1023.26,642.22 1020.62,642.22 1007.36,613.1 1007.2,612.15 1006.82,612.15 1006.65,613.1 992.59,642.22 990.43,642.22 974.36,605.4 979.11,605.4 991.16,633.67 991.32,634.55 991.7,634.55 991.86,633.67 1004.91,605.4 1008.33,605.4 1021.3,632.95 1021.46,633.84 1021.84,633.84 1022.01,632.95 "/>
    <path class="fil2" d="M1064.33 604.38c14.97,0 19.49,6.43 19.49,19.44l-36.23 0c0.72,6.82 4.99,13.12 16.52,13.12 5.08,0 11.63,-0.55 16.21,-2.87l2.02 3.93c-4.98,3.12 -12.01,3.97 -17.88,3.97 -12.92,0 -20.47,-4.44 -20.47,-18.1 0,-13.96 7.23,-19.49 20.34,-19.49zm-0.15 3.85c-10.44,0 -15.33,5.19 -16,11.84l31.29 0c-0.67,-6.62 -3.78,-11.84 -15.3,-11.84z"/>
    <path class="fil2" d="M1117.69 605.33l-0.58 3.87c-3.43,-1.2 -17.21,-0.16 -17.21,3.52l0 29.5 -4.5 0 0 -36.83 4.37 0 0.21 2.51c2.6,-3.39 12.84,-3.51 17.72,-2.57z"/>
    <path class="fil2" d="M1169.22 623.75c0,-12.05 5.59,-19.36 18.45,-19.36 3.99,0 13.42,0.88 16.45,3.67l0 -17.51 4.83 0 0 42.57 0.71 9.11 -4.17 0 -0.55 -4.43c-3.2,3.42 -10.5,4.22 -16.46,4.22 -12.21,0 -19.26,-6.29 -19.26,-18.27zm4.6 -0.68c0,8.42 2.87,14.66 14.92,14.66 4.07,0 11.78,-1.63 15.38,-4.46l0 -21.54c-2.62,-2.24 -10.64,-3.69 -15.04,-3.69 -11.08,0 -15.25,6.75 -15.25,15.02z"/>
    <path class="fil2" d="M1394.3 593c4.74,0 8.42,1.09 11.03,3.26 2.6,2.19 3.9,5.38 3.9,9.58l0 0.43c0,2.42 -0.58,4.48 -1.76,6.19 -1.17,1.71 -2.74,2.87 -4.73,3.47l0 0.34c2.6,0.54 4.57,1.75 5.89,3.59 1.32,1.86 1.98,4.09 1.98,6.73l0 0.62c0.04,4.55 -1.23,7.91 -3.84,10.1 -2.6,2.19 -6.32,3.29 -11.16,3.29l-31.33 0 0 -47.6 30.01 0zm-1.84 11.01l-14.95 0 0 7.77 14.95 0c1.26,0 2.17,-0.26 2.72,-0.78 0.55,-0.52 0.82,-1.42 0.82,-2.71l0 -0.93c0,-1.21 -0.27,-2.07 -0.82,-2.58 -0.55,-0.51 -1.45,-0.77 -2.72,-0.77zm1.26 17.63l-16.2 0 0 7.93 16.2 0c2.51,0 3.74,-1.17 3.68,-3.51l0 -0.96c0,-1.22 -0.3,-2.1 -0.89,-2.64 -0.58,-0.54 -1.52,-0.82 -2.78,-0.82zm29.3 -16.26l0 -0.07c5.29,-3.59 11.69,-5.38 19.23,-5.38 1.85,0 3.56,0.11 5.13,0.35 1.56,0.23 3.16,0.66 4.79,1.29 1.62,0.63 2.99,1.45 4.13,2.43 1.12,1 2.05,2.36 2.78,4.06 0.72,1.7 1.08,3.66 1.08,5.87l0 16.47 0.87 10.19 -11.29 0 -1.2 -3.12c-1.45,0.98 -3.39,1.89 -5.79,2.68 -2.39,0.79 -5.16,1.19 -8.27,1.19 -4.71,0 -8.26,-1.02 -10.65,-3.07 -2.39,-2.04 -3.58,-4.95 -3.58,-8.72l0 -0.66c0,-1.69 0.24,-3.14 0.72,-4.37 0.49,-1.23 1.1,-2.23 1.85,-3.01 0.76,-0.78 1.89,-1.5 3.4,-2.14 1.52,-0.65 3.05,-1.14 4.6,-1.5 1.55,-0.35 3.62,-0.78 6.22,-1.29 0.88,-0.18 2.05,-0.37 3.49,-0.6 3.03,-0.6 4.94,-1.04 5.74,-1.35 0.8,-0.3 1.2,-0.84 1.2,-1.64l0 -0.3c0,-1.09 -0.41,-1.86 -1.23,-2.31 -0.81,-0.46 -2.24,-0.68 -4.25,-0.68 -2.65,0 -5.3,0.33 -7.94,0.96 -2.64,0.65 -4.69,1.46 -6.13,2.46l-4.9 -7.76zm24.26 17.39c-0.04,0.09 -0.1,0.17 -0.16,0.25 -0.05,0.08 -0.12,0.14 -0.19,0.18 -0.07,0.05 -0.14,0.09 -0.24,0.14 -0.1,0.04 -0.2,0.08 -0.31,0.12 -0.11,0.05 -0.25,0.09 -0.45,0.14 -0.2,0.04 -0.4,0.09 -0.6,0.14 -0.21,0.04 -0.49,0.1 -0.86,0.19 -0.36,0.09 -0.72,0.17 -1.05,0.24 -0.33,0.07 -0.78,0.16 -1.35,0.28 -0.57,0.11 -1.12,0.23 -1.66,0.32 -0.43,0.08 -1.02,0.19 -1.77,0.33 -2.44,0.51 -4.02,0.94 -4.78,1.29 -0.75,0.35 -1.12,1.01 -1.12,1.96l0 0.56c-0.05,0.95 0.32,1.63 1.09,2.04 0.78,0.4 2.07,0.61 3.88,0.61 3.22,0 6.42,-0.6 9.58,-1.79l0 -7zm48.5 -22.84c1.8,0 3.55,0.26 5.24,0.78 1.7,0.52 3.29,1.31 4.79,2.39 1.51,1.08 2.72,2.57 3.65,4.5 0.92,1.93 1.38,4.15 1.38,6.67l0 26.32 -13.03 0 0 -24.67c0,-1.95 -0.57,-3.35 -1.71,-4.21 -1.14,-0.86 -2.57,-1.29 -4.29,-1.29 -2.69,0 -4.86,0.93 -6.49,2.78l-0.39 0.4 0 26.99 -13.04 0 0 -39.57 10.65 0 1 3.75c1.36,-1.35 3.08,-2.49 5.18,-3.43 2.1,-0.94 4.45,-1.42 7.05,-1.42zm64.72 34.42c-4.92,4.76 -11.38,7.21 -19.36,7.34 -2.33,0.04 -4.45,-0.11 -6.32,-0.42 -1.87,-0.32 -3.69,-0.94 -5.45,-1.88 -1.77,-0.93 -3.23,-2.16 -4.39,-3.73 -1.17,-1.56 -2.1,-3.62 -2.81,-6.16 -0.72,-2.54 -1.07,-5.51 -1.07,-8.89 0,-3.37 0.34,-6.27 1.03,-8.72 0.68,-2.45 1.59,-4.42 2.74,-5.94 1.13,-1.52 2.62,-2.73 4.45,-3.64 1.83,-0.91 3.75,-1.53 5.76,-1.87 2.01,-0.35 4.34,-0.52 6.98,-0.52 6.48,0 11.83,1.07 16.05,3.22l-2.72 9.43c-4.88,-1.63 -9.27,-2.46 -13.19,-2.46 -3.43,0 -5.67,0.68 -6.67,2.01 -1.01,1.34 -1.52,4.2 -1.52,8.61 0,4.41 0.46,7.3 1.39,8.68 0.93,1.38 2.8,2.07 5.62,2.07 2.87,0 5.62,-0.43 8.26,-1.29 2.64,-0.86 4.94,-2.07 6.87,-3.61l4.35 7.76zm20.73 -33.39c2.4,-0.69 5.16,-1.03 8.29,-1.03 3.14,0 5.89,0.34 8.26,1.03 2.38,0.68 4.54,1.8 6.48,3.33 1.94,1.54 3.4,3.71 4.42,6.49 1.01,2.78 1.52,6.15 1.52,10.1 0,3.93 -0.51,7.3 -1.52,10.08 -1.02,2.78 -2.48,4.94 -4.42,6.46 -1.94,1.52 -4.1,2.62 -6.48,3.31 -2.37,0.68 -5.12,1.03 -8.26,1.03 -3.13,0 -5.89,-0.35 -8.29,-1.03 -2.39,-0.69 -4.56,-1.79 -6.5,-3.31 -1.94,-1.52 -3.41,-3.67 -4.44,-6.46 -1.01,-2.79 -1.53,-6.16 -1.53,-10.08 0,-3.94 0.52,-7.31 1.53,-10.1 1.03,-2.79 2.5,-4.95 4.44,-6.49 1.94,-1.53 4.11,-2.65 6.5,-3.33zm11.83 9.69c-0.9,-0.24 -2.09,-0.37 -3.57,-0.37 -1.47,0 -2.64,0.13 -3.52,0.37 -0.88,0.25 -1.7,0.75 -2.42,1.49 -0.73,0.76 -1.23,1.84 -1.52,3.24 -0.28,1.41 -0.42,3.24 -0.42,5.5 0,2.25 0.14,4.09 0.42,5.5 0.29,1.4 0.79,2.47 1.52,3.19 0.73,0.74 1.54,1.23 2.42,1.49 0.88,0.25 2.06,0.37 3.52,0.37 1.47,0 2.65,-0.12 3.54,-0.37 0.88,-0.26 1.68,-0.75 2.41,-1.49 0.72,-0.72 1.22,-1.79 1.51,-3.19 0.3,-1.41 0.44,-3.24 0.44,-5.5 0,-2.26 -0.14,-4.09 -0.44,-5.5 -0.29,-1.4 -0.78,-2.48 -1.49,-3.24 -0.7,-0.75 -1.5,-1.24 -2.4,-1.49z"/>
    <path class="fil2" d="M1686.5 633.07c-2.7,2.63 -5.93,4.74 -9.71,6.35 -3.79,1.61 -7.75,2.4 -11.9,2.4 -3.27,0 -6.09,-0.21 -8.47,-0.61 -2.38,-0.41 -4.6,-1.17 -6.67,-2.26 -2.07,-1.11 -3.75,-2.6 -5.06,-4.45 -1.3,-1.86 -2.31,-4.27 -3.05,-7.22 -0.73,-2.96 -1.09,-6.45 -1.09,-10.48 0,-4.07 0.37,-7.57 1.12,-10.48 0.76,-2.92 1.79,-5.31 3.12,-7.17 1.32,-1.86 3.09,-3.36 5.32,-4.46 2.24,-1.12 4.62,-1.88 7.2,-2.28 2.56,-0.4 5.66,-0.6 9.27,-0.6 6.73,0 12.79,1.35 18.19,4.06l-2.99 11.15c-4.2,-2.46 -9.54,-3.67 -16.03,-3.65 -2.64,0 -4.68,0.16 -6.11,0.47 -1.43,0.31 -2.57,1.01 -3.4,2.11 -0.85,1.1 -1.38,2.42 -1.59,3.97 -0.23,1.57 -0.34,3.87 -0.34,6.89 0,2 0.04,3.62 0.14,4.9 0.1,1.27 0.27,2.44 0.53,3.5 0.26,1.05 0.6,1.87 1.03,2.43 0.42,0.57 1.02,1.05 1.82,1.46 0.79,0.41 1.67,0.67 2.64,0.79 0.97,0.12 2.24,0.18 3.78,0.18 3.4,0 6.42,-0.6 9.05,-1.8 2.63,-1.21 5.3,-2.9 7.98,-5.06l5.23 9.86zm29.16 -33.13c6.86,0 11.96,1.78 15.3,5.35 3.33,3.56 5,9.3 5,17.22l0 2.2 -29.26 0c0.3,2.68 1.26,4.51 2.86,5.51 1.62,1 4.27,1.5 7.97,1.5 4.2,0 9.08,-0.93 14.65,-2.79l1.87 9.22c-2.1,0.95 -4.73,1.78 -7.85,2.49 -3.14,0.7 -6.46,1.07 -9.99,1.07 -3.36,0 -6.28,-0.35 -8.77,-1.03 -2.47,-0.69 -4.68,-1.81 -6.6,-3.38 -1.93,-1.55 -3.38,-3.71 -4.38,-6.48 -0.99,-2.77 -1.49,-6.14 -1.49,-10.13 0,-7.06 1.81,-12.28 5.42,-15.67 3.61,-3.38 8.7,-5.08 15.26,-5.08zm0 9.79c-3.03,0 -5.24,0.56 -6.63,1.68 -1.39,1.12 -2.21,2.83 -2.47,5.13l18.49 0c-0.35,-2.3 -1.21,-4.01 -2.59,-5.13 -1.38,-1.11 -3.64,-1.68 -6.81,-1.68zm54.46 -9.79c1.81,0 3.56,0.26 5.24,0.78 1.7,0.52 3.29,1.31 4.79,2.39 1.51,1.08 2.72,2.57 3.64,4.5 0.93,1.93 1.39,4.15 1.39,6.67l0 26.32 -13.03 0 0 -24.67c0,-1.95 -0.57,-3.35 -1.71,-4.21 -1.14,-0.86 -2.58,-1.29 -4.29,-1.29 -2.69,0 -4.86,0.93 -6.49,2.78l-0.39 0.4 0 26.99 -13.04 0 0 -39.57 10.65 0 1 3.75c1.35,-1.35 3.08,-2.49 5.18,-3.43 2.1,-0.94 4.45,-1.42 7.05,-1.42zm54.85 11.49l-11.62 0 0 16.66c0,1.17 0.32,1.98 0.96,2.44 0.63,0.46 1.6,0.68 2.89,0.68 2.86,0 5.68,-0.93 8.46,-2.79l0 10.55c-3.45,1.56 -7.15,2.33 -11.1,2.3 -4.15,0 -7.5,-0.98 -10.05,-2.92 -2.54,-1.95 -3.82,-4.92 -3.82,-8.89l0 -18.03 -6.49 0 0 -10.39 6.49 0 0 -9.66 11.69 -1.62 0.39 11.29 12.22 0 0 10.39zm34.11 -10.99c2.06,0 3.97,0.14 5.74,0.4l-1.7 12.45c-1.98,-0.74 -4.02,-1.1 -6.14,-1.1 -2.77,0 -4.82,0.71 -6.14,2.14 -1.32,1.43 -1.98,3.8 -1.98,7.09l0 19.18 -13.04 0 0 -39.57 10.58 0 1.59 6.04c1.89,-4.43 5.59,-6.64 11.1,-6.64zm14 4.95l0 -0.07c5.29,-3.59 11.7,-5.38 19.23,-5.38 1.85,0 3.56,0.11 5.13,0.35 1.56,0.23 3.16,0.66 4.79,1.29 1.62,0.63 2.99,1.45 4.13,2.43 1.12,1 2.05,2.36 2.78,4.06 0.72,1.7 1.08,3.66 1.08,5.87l0 16.47 0.87 10.19 -11.29 0 -1.2 -3.12c-1.45,0.98 -3.4,1.89 -5.79,2.68 -2.39,0.79 -5.15,1.19 -8.27,1.19 -4.71,0 -8.26,-1.02 -10.65,-3.07 -2.39,-2.04 -3.58,-4.95 -3.58,-8.72l0 -0.66c0,-1.69 0.24,-3.14 0.73,-4.37 0.48,-1.23 1.1,-2.23 1.85,-3.01 0.76,-0.78 1.89,-1.5 3.4,-2.14 1.52,-0.65 3.05,-1.14 4.6,-1.5 1.55,-0.35 3.62,-0.78 6.22,-1.29 0.88,-0.18 2.05,-0.37 3.49,-0.6 3.03,-0.6 4.94,-1.04 5.74,-1.35 0.81,-0.3 1.2,-0.84 1.2,-1.64l0 -0.3c0,-1.09 -0.41,-1.86 -1.24,-2.31 -0.81,-0.46 -2.23,-0.68 -4.25,-0.68 -2.65,0 -5.3,0.33 -7.94,0.96 -2.64,0.65 -4.69,1.46 -6.13,2.46l-4.9 -7.76zm24.26 17.39c-0.05,0.09 -0.1,0.17 -0.17,0.25 -0.05,0.08 -0.12,0.14 -0.19,0.18 -0.07,0.05 -0.14,0.09 -0.24,0.14 -0.1,0.04 -0.2,0.08 -0.31,0.12 -0.11,0.05 -0.25,0.09 -0.45,0.14 -0.2,0.04 -0.4,0.09 -0.6,0.14 -0.21,0.04 -0.49,0.1 -0.86,0.19 -0.37,0.09 -0.72,0.17 -1.05,0.24 -0.33,0.07 -0.79,0.16 -1.36,0.28 -0.57,0.11 -1.12,0.23 -1.66,0.32 -0.43,0.08 -1.03,0.19 -1.77,0.33 -2.43,0.51 -4.02,0.94 -4.78,1.29 -0.75,0.35 -1.12,1.01 -1.12,1.96l0 0.56c-0.04,0.95 0.32,1.63 1.09,2.04 0.78,0.4 2.07,0.61 3.88,0.61 3.23,0 6.42,-0.6 9.58,-1.79l0 -7zm24.55 -33.17l13.11 0 0 50.99 -13.11 0 0 -50.99z"/>
    <path class="fil0" d="M941.14 604.36l11.78 0c8.56,0 15.57,7.01 15.57,15.57l0 5.62c0,8.56 -7,15.57 -15.57,15.57l-11.78 0c-8.56,0 -15.57,-7.01 -15.57,-15.57l0 -5.62c0,-8.56 7,-15.57 15.57,-15.57zm1.39 4.34l9 0c6.54,0 11.89,5.35 11.89,11.89l0 4.3c0,6.54 -5.35,11.89 -11.89,11.89l-9 0c-6.54,0 -11.89,-5.35 -11.89,-11.89l0 -4.3c0,-6.54 5.35,-11.89 11.89,-11.89z"/>
    <path class="fil2" d="M1141.41 604.38c14.97,0 19.48,6.43 19.48,19.44l-36.23 0c0.72,6.82 5,13.12 16.52,13.12 5.08,0 11.63,-0.55 16.21,-2.87l2.02 3.93c-4.98,3.12 -12.01,3.97 -17.87,3.97 -12.92,0 -20.47,-4.44 -20.47,-18.1 0,-13.96 7.22,-19.49 20.34,-19.49zm-0.15 3.85c-10.44,0 -15.33,5.19 -16,11.84l31.29 0c-0.67,-6.62 -3.78,-11.84 -15.3,-11.84z"/>
    <path class="fil2" d="M1286.39 623.75c0,-12.05 -5.59,-19.36 -18.45,-19.36 -3.99,0 -13.42,0.88 -16.45,3.67l0 -17.51 -4.83 0 0 42.57 -0.71 9.11 4.18 0 0.55 -4.43c3.2,3.42 10.49,4.22 16.46,4.22 12.21,0 19.26,-6.29 19.26,-18.27zm-4.6 -0.68c0,8.42 -2.87,14.66 -14.91,14.66 -4.07,0 -11.78,-1.63 -15.38,-4.46l0 -21.54c2.62,-2.24 10.64,-3.69 15.05,-3.69 11.07,0 15.25,6.75 15.25,15.02z"/>
    <path class="fil0" d="M1331.01 606.15l-5.19 0 -14.55 30.02 -14.54 -30.02 -5.19 0 17.14 35.37 -1.69 3.48c-3.41,4.39 -8.33,5.93 -14.91,4.28l0 5.14c7.88,1.24 15.19,-0.91 18.92,-6.98l20.02 -41.3z"/>
   </g>
  </g>
 </g>
</svg>
