<?xml version="1.0" encoding="UTF-8"?>
<!DOCTYPE svg PUBLIC "-//W3C//DTD SVG 1.1//EN" "http://www.w3.org/Graphics/SVG/1.1/DTD/svg11.dtd">
<!-- Creator: CorelDRAW 2020 (64 Bit) -->
<svg xmlns="http://www.w3.org/2000/svg" xml:space="preserve" width="43.3225mm" height="14.0278mm" version="1.1" style="shape-rendering:geometricPrecision; text-rendering:geometricPrecision; image-rendering:optimizeQuality; fill-rule:evenodd; clip-rule:evenodd"
viewBox="0 0 1956.83 633.62"
 xmlns:xlink="http://www.w3.org/1999/xlink"
 xmlns:xodm="http://www.corel.com/coreldraw/odm/2003">
 <defs>
  <style type="text/css">
   <![CDATA[
    .fil0 {fill:#222862}
   ]]>
  </style>
 </defs>
 <g id="Camada_x0020_1">
  <metadata id="CorelCorpID_0Corel-Layer"/>
  <g id="_2447415334928">
   <rect class="fil0" transform="matrix(0.432587 -0 -0.153832 0.71093 814.16 12.6925)" width="368.85" height="857.14"/>
   <path class="fil0" d="M323.28 622.06l167.16 0 255.34 -609.36 -159.56 0 -173.24 413.43 -63.34 -335.89c-8.65,-47.31 -39.53,-77.54 -66.99,-77.54l-282.65 0 0 18.23c105.27,16.22 182.9,46.09 197.39,107.12l125.89 484.01z"/>
   <path class="fil0" d="M1817.95 622.18l138.88 -0.12 -123.16 -609.36 -131.14 0.08c-37.42,2.05 -63.32,20.33 -77.48,55.12l-226.85 554.16 163.44 0.12 31.85 -88.98 0.05 0 -0.05 0.78 92.64 -0.35 75.4 0.35 -0.05 -0.63 38.47 -0.15 17.99 88.98zm-180.3 -215.84l130.48 -0.12 -45.54 -225.36 -84.94 225.48z"/>
   <path class="fil0" d="M977.66 469.49c40.18,24.32 261.83,82.1 261.83,-19.98 0,-96.96 -224.48,-77.43 -224.48,-253.71 0,-128.11 185.33,-256.21 415.55,-164.97l-27.16 123.75c-119.2,-46.85 -223.77,-23.06 -223.77,23.03 0,84 222.12,81.26 222.12,266.88 0,129.29 -171.62,246.82 -452.62,158.31l28.52 -133.32z"/>
  </g>
 </g>
</svg>
