<?xml version="1.0" encoding="UTF-8"?>
<!DOCTYPE svg PUBLIC "-//W3C//DTD SVG 1.1//EN" "http://www.w3.org/Graphics/SVG/1.1/DTD/svg11.dtd">
<!-- Creator: CorelDRAW 2020 (64 Bit) -->
<svg xmlns="http://www.w3.org/2000/svg" xml:space="preserve" width="15.5834mm" height="15.6075mm" version="1.1" style="shape-rendering:geometricPrecision; text-rendering:geometricPrecision; image-rendering:optimizeQuality; fill-rule:evenodd; clip-rule:evenodd"
viewBox="0 0 571.98 572.87"
 xmlns:xlink="http://www.w3.org/1999/xlink"
 xmlns:xodm="http://www.corel.com/coreldraw/odm/2003">
 <defs>
  <style type="text/css">
   <![CDATA[
    .fil0 {fill:#FEFEFE}
   ]]>
  </style>
 </defs>
 <g id="Camada_x0020_1">
  <metadata id="CorelCorpID_0Corel-Layer"/>
  <g id="_3014828195792">
   <path class="fil0" d="M291.71 0c154.79,0 280.28,125.49 280.28,280.27 0,154.79 -125.49,280.28 -280.28,280.28 -50.54,0 -97.96,-13.39 -138.9,-36.8l-152.81 49.12 49.12 -152.16c-23.96,-41.29 -37.69,-89.26 -37.69,-140.44 0,-154.79 125.49,-280.27 280.27,-280.27zm0 45.66c129.58,0 234.62,105.04 234.62,234.62 0,129.57 -105.04,234.62 -234.62,234.62 -50.45,0 -97.18,-15.93 -135.44,-43.03l-82.61 26.55 26.62 -82.47c-27.2,-38.3 -43.19,-85.12 -43.19,-135.68 0,-129.57 105.05,-234.62 234.62,-234.62z"/>
   <path class="fil0" d="M156.75 235.89c-8.05,-56.91 6.91,-91.38 60.89,-87.82l32 62.16c7.99,15.96 -29.94,34.5 -20.8,52.19 19.37,33.97 53.06,63.03 89.65,76.61 25.18,12.81 36.01,-39.84 55.74,-31.33l60.04 29.58c-2.58,61.7 -38.61,81.18 -106.3,60.69 -84.13,-29.18 -150.67,-89.3 -171.23,-162.08z"/>
  </g>
 </g>
</svg>
