<?xml version="1.0" encoding="UTF-8"?>
<!DOCTYPE svg PUBLIC "-//W3C//DTD SVG 1.1//EN" "http://www.w3.org/Graphics/SVG/1.1/DTD/svg11.dtd">
<!-- Creator: CorelDRAW 2020 (64 Bit) -->
<svg xmlns="http://www.w3.org/2000/svg" xml:space="preserve" width="24.5402mm" height="24.5402mm" version="1.1" style="shape-rendering:geometricPrecision; text-rendering:geometricPrecision; image-rendering:optimizeQuality; fill-rule:evenodd; clip-rule:evenodd"
viewBox="0 0 449.2 449.2"
 xmlns:xlink="http://www.w3.org/1999/xlink"
 xmlns:xodm="http://www.corel.com/coreldraw/odm/2003">
 <defs>
  <style type="text/css">
   <![CDATA[
    .fil2 {fill:#FEFEFE}
    .fil1 {fill:#FEFEFE}
    .fil0 {fill:#33CC33}
   ]]>
  </style>
 </defs>
 <g id="Camada_x0020_1">
  <metadata id="CorelCorpID_0Corel-Layer"/>
  <g id="_2211574378144">
   <rect class="fil0" width="449.2" height="449.2" rx="99.28" ry="99.28"/>
   <path class="fil1" d="M228.38 73.35c81.59,0 147.74,66.15 147.74,147.74 0,81.59 -66.15,147.74 -147.74,147.74 -26.64,0 -51.64,-7.06 -73.22,-19.4l-80.55 25.89 25.89 -80.2c-12.63,-21.77 -19.87,-47.05 -19.87,-74.03 0,-81.59 66.15,-147.74 147.74,-147.74zm0 24.07c68.3,0 123.67,55.37 123.67,123.67 0,68.3 -55.37,123.67 -123.67,123.67 -26.59,0 -51.23,-8.4 -71.39,-22.68l-43.55 14 14.03 -43.47c-14.34,-20.19 -22.77,-44.87 -22.77,-71.52 0,-68.3 55.37,-123.67 123.67,-123.67z"/>
   <path class="fil2" d="M157.25 197.7c-4.24,-30 3.64,-48.17 32.1,-46.29l16.87 32.77c4.22,8.41 -15.78,18.19 -10.96,27.51 10.21,17.91 27.97,33.22 47.26,40.39 13.27,6.75 18.98,-21 29.38,-16.52l31.65 15.6c-1.36,32.53 -20.35,42.79 -56.03,31.99 -44.34,-15.38 -79.42,-47.07 -90.26,-85.44z"/>
  </g>
 </g>
</svg>
